<?xml version="1.0" encoding="UTF-8"?>
<svg version="1.1" xmlns="http://www.w3.org/2000/svg" width="500" height="500">
<path d="M0 0 C1.21400494 -0.00453111 2.42800988 -0.00906223 3.67880285 -0.01373065 C7.02725012 -0.02415809 10.37548163 -0.02570785 13.72392964 -0.02334189 C17.34373954 -0.02293208 20.96351795 -0.03398861 24.58331299 -0.04345703 C31.66779354 -0.06003332 38.75224081 -0.06556508 45.83673914 -0.06668179 C51.59965396 -0.067634 57.36255785 -0.07175291 63.12546921 -0.07808304 C79.48689994 -0.09568734 95.84830449 -0.10492334 112.20974477 -0.10342209 C113.09083997 -0.10334218 113.97193517 -0.10326227 114.87973022 -0.10317993 C115.76190926 -0.10309817 116.64408829 -0.10301641 117.55300002 -0.10293217 C131.83982972 -0.10211981 146.12655386 -0.12124691 160.41335304 -0.14945666 C175.10500912 -0.1782354 189.79661381 -0.19199417 204.48829877 -0.19026911 C212.72763299 -0.18960686 220.96685659 -0.19502625 229.20616531 -0.21662521 C236.22319584 -0.23490296 243.2400656 -0.23913066 250.25710972 -0.22560637 C253.83171346 -0.21910935 257.40600939 -0.21883967 260.98058319 -0.23631287 C285.23363812 -0.34735553 304.41393001 1.64310831 322.70541382 19.26742554 C335.44223166 33.94341287 339.86733514 49.63296228 339.83912659 68.63346863 C339.84139214 69.75960325 339.8436577 70.88573788 339.84599191 72.0459978 C339.85230886 75.80967758 339.85150402 79.57332113 339.85067749 83.33700562 C339.85312788 86.03951656 339.85704509 88.74202498 339.8608551 91.4445343 C339.86914433 98.01779403 339.87190916 104.59104478 339.87246748 111.1643093 C339.87294343 116.5096587 339.87500213 121.85500515 339.87816811 127.20035362 C339.88696973 142.37052548 339.89158822 157.54069027 339.89083763 172.7108647 C339.8907777 173.93636109 339.8907777 173.93636109 339.89071655 175.18661499 C339.89067567 176.00461524 339.89063479 176.82261549 339.89059267 177.66540363 C339.89018627 190.92032178 339.89975554 204.17521152 339.91385492 217.43012146 C339.92823297 231.05498938 339.93512433 244.67984345 339.93426114 258.30471915 C339.93392968 265.94810575 339.93665448 273.59146255 339.94743919 281.2348423 C339.95656298 287.7425342 339.95870403 294.2501828 339.95192977 300.75787834 C339.94867409 304.07470728 339.94966911 307.39138572 339.95728302 310.70821762 C339.96501914 314.31236253 339.96034722 317.91629115 339.95265198 321.52043152 C339.95779554 322.55683503 339.9629391 323.59323855 339.96823853 324.66104823 C339.89309885 340.64687459 335.64787608 354.6317455 325.70541382 367.26742554 C325.26842163 367.87973022 324.83142944 368.49203491 324.38119507 369.12289429 C315.74590382 380.45509331 300.53097958 388.04533194 286.70541382 390.26742554 C282.57122688 390.54438896 278.45030011 390.54193249 274.3079834 390.52812195 C273.08298909 390.5319475 271.85799478 390.53577304 270.59587944 390.53971452 C267.21690306 390.54821396 263.83814563 390.54782383 260.45917583 390.54353392 C256.80672625 390.54105881 253.15430183 390.55009057 249.50186157 390.55757141 C242.35454983 390.57029863 235.2072757 390.57211458 228.05995454 390.56977115 C222.24837889 390.56798563 216.43681462 390.56974263 210.62524033 390.57399559 C209.79702732 390.57459078 208.9688143 390.57518597 208.11550393 390.57579919 C206.43280078 390.57701099 204.75009763 390.57822512 203.06739448 390.57944157 C187.29902439 390.59030947 171.5306757 390.58815816 155.76230441 390.58205672 C141.34992682 390.5768881 126.93761682 390.58814291 112.5252526 390.60715494 C97.7115756 390.62654593 82.89793056 390.63478714 68.08424079 390.63103169 C59.77351587 390.62912158 51.46284848 390.6315887 43.15213394 390.64574623 C36.07718303 390.65767707 29.00232506 390.65904585 21.92737283 390.64695606 C18.32091257 390.64107933 14.71462218 390.63993432 11.10817337 390.65195847 C7.19096923 390.66486643 3.27402065 390.65432416 -0.64318848 390.64164734 C-1.77229263 390.64902162 -2.90139679 390.65639591 -4.06471622 390.66399366 C-18.82338182 390.56378452 -35.62089914 384.97426067 -46.29458618 374.26742554 C-46.29458618 373.60742554 -46.29458618 372.94742554 -46.29458618 372.26742554 C-46.86306274 372.05730835 -47.43153931 371.84719116 -48.01724243 371.63070679 C-56.54103866 366.52812551 -61.67878065 353.31243986 -64.29458618 344.26742554 C-66.10159252 336.99681604 -66.58057542 330.09582843 -66.54855347 322.62290955 C-66.55167345 321.49098252 -66.55479343 320.35905549 -66.55800796 319.19282764 C-66.56594891 315.42149716 -66.55967945 311.65032932 -66.55337524 307.8789978 C-66.5549872 305.16633778 -66.55957676 302.45368454 -66.56399536 299.74102783 C-66.57286552 293.15064983 -66.57097789 286.56031751 -66.56517008 279.96993775 C-66.56064383 274.61080836 -66.56004485 269.25169172 -66.56221771 263.89256096 C-66.56252418 263.12831675 -66.56283064 262.36407253 -66.5631464 261.57666941 C-66.56378588 260.02385879 -66.56443431 258.47104817 -66.56509158 256.91823756 C-66.57078801 242.37404433 -66.56424798 227.82987635 -66.55349085 213.28568726 C-66.54455776 200.82214922 -66.54610672 188.35864845 -66.55532837 175.89511108 C-66.56604625 161.40267589 -66.57023687 146.91026281 -66.56410384 132.41782421 C-66.56346678 130.87058477 -66.56283804 129.32334533 -66.56221771 127.77610588 C-66.56190916 127.01494505 -66.56160061 126.25378421 -66.56128271 125.4695579 C-66.55956019 120.1210579 -66.56246134 114.77257199 -66.56717682 109.42407417 C-66.57280261 102.89995711 -66.57123369 96.37588814 -66.56061533 89.85177655 C-66.55538109 86.52683635 -66.55435095 83.20204201 -66.55991364 79.87709236 C-66.56539953 76.26429082 -66.55849785 72.65171259 -66.54855347 69.03892517 C-66.55301491 67.99999495 -66.55747635 66.96106472 -66.56207299 65.89065176 C-66.47681976 49.86104796 -62.21013255 35.96876827 -52.29458618 23.26742554 C-51.53146118 22.23617554 -50.76833618 21.20492554 -49.98208618 20.14242554 C-49.42521118 19.52367554 -48.86833618 18.90492554 -48.29458618 18.26742554 C-47.63458618 18.26742554 -46.97458618 18.26742554 -46.29458618 18.26742554 C-46.29458618 17.60742554 -46.29458618 16.94742554 -46.29458618 16.26742554 C-44.64458618 15.60742554 -42.99458618 14.94742554 -41.29458618 14.26742554 C-41.29458618 13.60742554 -41.29458618 12.94742554 -41.29458618 12.26742554 C-28.85152569 3.00131666 -15.18468879 -0.04187691 0 0 Z " fill="#28A67F" transform="translate(113.29458618164063,54.732574462890625)"/>
<path d="M0 0 C3.91719695 1.65183004 6.89105383 4.30406625 10.0625 7.0625 C11.21674783 8.05420084 12.37170838 9.04507267 13.52734375 10.03515625 C14.10597168 10.53160645 14.68459961 11.02805664 15.28076172 11.53955078 C18.7224776 14.46320094 22.24388806 17.28883547 25.7578125 20.125 C27.61360061 21.67687856 29.32993421 23.25352597 31 25 C29.36829868 28.85339633 26.78503859 31.76015526 24.0625 34.875 C19.90583323 39.70528781 15.86841968 44.60907534 11.9375 49.625 C11.2405603 50.51227783 11.2405603 50.51227783 10.52954102 51.41748047 C8.59335993 53.89766192 6.74629389 56.38055917 5 59 C4.34 59 3.68 59 3 59 C2.61328125 59.82757813 2.61328125 59.82757813 2.21875 60.671875 C0.82036875 63.34314175 -0.78763305 65.76851909 -2.5 68.25 C-3.1084375 69.14203125 -3.716875 70.0340625 -4.34375 70.953125 C-5.16359375 71.96632812 -5.16359375 71.96632812 -6 73 C-6.66 73 -7.32 73 -8 73 C-8.3403125 73.78890625 -8.3403125 73.78890625 -8.6875 74.59375 C-10.45365626 77.83170315 -12.70672797 80.62720501 -15 83.5 C-15.48766846 84.11584961 -15.97533691 84.73169922 -16.4777832 85.36621094 C-20.46747514 90.38315021 -24.55841174 95.30939329 -28.6796875 100.21875 C-31.41980273 103.50319788 -34.08856401 106.83924182 -36.75 110.1875 C-39.02771677 113.03464596 -41.32746694 115.8627086 -43.6315918 118.68847656 C-48.7635971 124.98254378 -53.84218549 131.31121331 -58.83740234 137.71435547 C-62.83744255 142.82800225 -66.95057382 147.84530265 -71.06958008 152.86328125 C-75.64521311 158.47631307 -79.98483802 164.24963091 -84.21850586 170.12451172 C-85.43310329 171.78425942 -86.71077759 173.3975285 -88 175 C-88.66 175 -89.32 175 -90 175 C-90.27529541 175.58990723 -90.55059082 176.17981445 -90.83422852 176.78759766 C-91.94826244 178.9018124 -93.13192184 180.56316342 -94.65234375 182.3984375 C-95.43786621 183.35423706 -95.43786621 183.35423706 -96.23925781 184.3293457 C-96.79967773 185.00441162 -97.36009766 185.67947754 -97.9375 186.375 C-99.11944802 187.81301485 -100.30042087 189.25183172 -101.48046875 190.69140625 C-102.07263184 191.41344238 -102.66479492 192.13547852 -103.27490234 192.87939453 C-105.80721356 195.99228092 -108.28192403 199.14860609 -110.75 202.3125 C-118.91573747 212.75371931 -127.41321786 222.90451221 -136 233 C-141.17855152 228.70786721 -145.86361937 224.17720685 -150.4375 219.25 C-151.39172852 218.24259766 -151.39172852 218.24259766 -152.36523438 217.21484375 C-152.96529297 216.57160156 -153.56535156 215.92835938 -154.18359375 215.265625 C-154.72556396 214.68586914 -155.26753418 214.10611328 -155.82592773 213.50878906 C-157 212 -157 212 -157 210 C-157.59296875 209.74476563 -158.1859375 209.48953125 -158.796875 209.2265625 C-161.2267449 207.87376259 -162.49236266 206.51658724 -164.25 204.375 C-166.72391299 201.44647906 -169.26267394 198.6842771 -172 196 C-175.16747959 192.87491498 -178.11885247 189.63758111 -181.01953125 186.265625 C-183.93727787 182.92776891 -186.95118021 179.67912104 -189.95678711 176.4206543 C-192.48237464 173.67627764 -194.95983285 170.90422652 -197.375 168.0625 C-201.10429002 163.74769343 -205.18312274 159.79402838 -209.23291016 155.78417969 C-212.73985149 152.29852941 -216.11287202 148.7596901 -219.296875 144.97265625 C-220.63752947 143.41983399 -222.03560121 141.91657645 -223.453125 140.43359375 C-224.29359375 139.54800781 -225.1340625 138.66242188 -226 137.75 C-226.78375 136.94046875 -227.5675 136.1309375 -228.375 135.296875 C-230 133 -230 133 -230.05859375 131 C-228.54240063 128.13545802 -226.49098846 126.38233133 -224.0625 124.25 C-223.16660156 123.45078125 -222.27070313 122.6515625 -221.34765625 121.828125 C-219 120 -219 120 -217 120 C-217 119.34 -217 118.68 -217 118 C-215.48848454 116.64902626 -213.91186687 115.37072655 -212.3125 114.125 C-205.56587045 108.7399949 -199.28819743 102.90830633 -193 97 C-191.0625 97.8125 -191.0625 97.8125 -189 99 C-188.67 99.99 -188.34 100.98 -188 102 C-187.34 102 -186.68 102 -186 102 C-186 102.66 -186 103.32 -186 104 C-185.34 104 -184.68 104 -184 104 C-182.6953125 105.29296875 -182.6953125 105.29296875 -181.125 107.1875 C-177.84366426 111.05233686 -174.45200763 114.78862386 -171 118.5 C-167.26271281 122.5280222 -163.58363487 126.58793071 -160 130.75390625 C-158.25821212 132.71001569 -156.48439575 134.62213512 -154.6875 136.52734375 C-154.09251709 137.15970947 -153.49753418 137.7920752 -152.88452148 138.44360352 C-151.68259316 139.71768297 -150.4764535 140.98780443 -149.26586914 142.25366211 C-145 146.77924171 -145 146.77924171 -145 149 C-144.38125 149.268125 -143.7625 149.53625 -143.125 149.8125 C-141 151 -141 151 -139 154 C-134.57797429 153.59611475 -132.42749984 150.58516996 -129.6875 147.4375 C-129.19894531 146.88956787 -128.71039063 146.34163574 -128.20703125 145.77709961 C-126.79666601 144.19160469 -125.39756855 142.59677068 -124 141 C-123.37738281 140.30132812 -122.75476563 139.60265625 -122.11328125 138.8828125 C-119.06678456 135.44536103 -116.107091 131.93857651 -113.15380859 128.42089844 C-112.69055176 127.86950195 -112.22729492 127.31810547 -111.75 126.75 C-111.28803223 126.19989258 -110.82606445 125.64978516 -110.35009766 125.08300781 C-106.50420461 120.53245302 -102.51504259 116.12866524 -98.44042969 111.78222656 C-95.9243464 109.10587117 -95.9243464 109.10587117 -94 106 C-93.34 106 -92.68 106 -92 106 C-91.731875 105.4225 -91.46375 104.845 -91.1875 104.25 C-89.97070811 101.94449957 -88.69666121 99.97943808 -87 98 C-86.34 98 -85.68 98 -85 98 C-84.7525 97.443125 -84.505 96.88625 -84.25 96.3125 C-82.77075182 93.57589087 -81.06532561 91.32349131 -79 89 C-78.34 89 -77.68 89 -77 89 C-76.72615479 88.40775635 -76.45230957 87.8155127 -76.17016602 87.20532227 C-75.04182286 85.07882035 -73.86920306 83.50894637 -72.27734375 81.71484375 C-71.74278564 81.10648682 -71.20822754 80.49812988 -70.6574707 79.87133789 C-70.08988037 79.23317139 -69.52229004 78.59500488 -68.9375 77.9375 C-64.02973281 72.36690806 -59.29058267 66.72102095 -54.70703125 60.87890625 C-54.14371094 60.25886719 -53.58039063 59.63882813 -53 59 C-52.34 59 -51.68 59 -51 59 C-51 58.34 -51 57.68 -51 57 C-50.34 57 -49.68 57 -49 57 C-48.76410156 56.44441406 -48.52820313 55.88882813 -48.28515625 55.31640625 C-46.6872248 52.43624409 -44.694995 50.33630924 -42.4375 47.9375 C-39.0046517 44.24636541 -35.72061908 40.49589741 -32.5625 36.5625 C-28.87110297 31.98255431 -24.97842154 27.66103077 -20.96533203 23.36645508 C-17.48310566 19.61042212 -14.34494067 15.69082284 -11.33984375 11.546875 C-10.89769531 11.03640625 -10.45554687 10.5259375 -10 10 C-9.34 10 -8.68 10 -8 10 C-7.79375 9.46375 -7.5875 8.9275 -7.375 8.375 C-5.42003056 4.9982346 -2.81776305 2.69525161 0 0 Z " fill="#FBFDFD" transform="translate(355,135)"/>
<path d="M0 0 C1.21400494 -0.00453111 2.42800988 -0.00906223 3.67880285 -0.01373065 C7.02725012 -0.02415809 10.37548163 -0.02570785 13.72392964 -0.02334189 C17.34373954 -0.02293208 20.96351795 -0.03398861 24.58331299 -0.04345703 C31.66779354 -0.06003332 38.75224081 -0.06556508 45.83673914 -0.06668179 C51.59965396 -0.067634 57.36255785 -0.07175291 63.12546921 -0.07808304 C79.48689994 -0.09568734 95.84830449 -0.10492334 112.20974477 -0.10342209 C113.09083997 -0.10334218 113.97193517 -0.10326227 114.87973022 -0.10317993 C115.76190926 -0.10309817 116.64408829 -0.10301641 117.55300002 -0.10293217 C131.83982972 -0.10211981 146.12655386 -0.12124691 160.41335304 -0.14945666 C175.10500912 -0.1782354 189.79661381 -0.19199417 204.48829877 -0.19026911 C212.72763299 -0.18960686 220.96685659 -0.19502625 229.20616531 -0.21662521 C236.22319584 -0.23490296 243.2400656 -0.23913066 250.25710972 -0.22560637 C253.83171346 -0.21910935 257.40600939 -0.21883967 260.98058319 -0.23631287 C279.84536601 -0.32260559 295.28646348 0.02691597 311.70541382 10.26742554 C310.22041382 11.25742554 310.22041382 11.25742554 308.70541382 12.26742554 C308.37541382 11.60742554 308.04541382 10.94742554 307.70541382 10.26742554 C305.72696028 9.53830585 305.72696028 9.53830585 303.39291382 9.07992554 C302.61303101 8.90074585 301.83314819 8.72156616 301.02963257 8.53695679 C298.61336623 8.25675111 297.0029843 8.52610417 294.70541382 9.26742554 C294.70541382 8.60742554 294.70541382 7.94742554 294.70541382 7.26742554 C293.71541382 7.26742554 292.72541382 7.26742554 291.70541382 7.26742554 C291.70541382 6.27742554 291.70541382 5.28742554 291.70541382 4.26742554 C290.22041382 4.76242554 290.22041382 4.76242554 288.70541382 5.26742554 C288.04541382 4.93742554 287.38541382 4.60742554 286.70541382 4.26742554 C286.70541382 3.60742554 286.70541382 2.94742554 286.70541382 2.26742554 C286.14944804 2.43006051 285.59348227 2.59269549 285.02066904 2.76025879 C282.49321069 3.31390956 280.2484844 3.38796489 277.66133022 3.38209343 C276.12643181 3.38230486 276.12643181 3.38230486 274.56052536 3.38252056 C272.87683659 3.37508176 272.87683659 3.37508176 271.15913391 3.36749268 C269.36858647 3.36559927 269.36858647 3.36559927 267.54186636 3.36366761 C264.22740809 3.35921509 260.9130157 3.35027435 257.59857547 3.33951402 C254.02460076 3.32903414 250.45061828 3.32440044 246.87663269 3.31918335 C240.68340679 3.30947043 234.4901952 3.29642855 228.2969799 3.28145981 C218.51260449 3.25810283 208.72822807 3.2450909 198.9438324 3.23376465 C195.59730047 3.22976324 192.25076862 3.22569457 188.90423679 3.2216053 C188.06793243 3.22058607 187.23162807 3.21956684 186.36998115 3.21851673 C176.85084866 3.20677425 167.3317197 3.19289466 157.81259155 3.17807007 C156.94238098 3.17671764 156.0721704 3.1753652 155.17558981 3.17397179 C141.06142936 3.15177274 126.94729263 3.12190262 112.83315104 3.09010266 C98.34964747 3.05774891 83.86615636 3.03685675 69.38262087 3.02583039 C60.4443206 3.01859509 51.5061377 3.0018548 42.56788052 2.97302963 C36.44734309 2.95407636 30.32685268 2.94594328 24.20628612 2.9464346 C20.67172101 2.94637139 17.13734039 2.94132563 13.60281754 2.92326736 C9.77672345 2.9038332 5.9508536 2.90742884 2.12471008 2.91339111 C1.00002018 2.90397047 -0.12466972 2.89454983 -1.28344113 2.88484371 C-2.81442791 2.89287838 -2.81442791 2.89287838 -4.37634373 2.90107536 C-5.26006297 2.89939413 -6.14378221 2.8977129 -7.05428082 2.89598072 C-9.76131295 3.34480929 -10.50817936 4.26477879 -12.29458618 6.26742554 C-12.95458618 6.26742554 -13.61458618 6.26742554 -14.29458618 6.26742554 C-14.62458618 7.25742554 -14.95458618 8.24742554 -15.29458618 9.26742554 C-15.29458618 7.61742554 -15.29458618 5.96742554 -15.29458618 4.26742554 C-16.28458618 4.92742554 -17.27458618 5.58742554 -18.29458618 6.26742554 C-18.95458618 6.59742554 -19.61458618 6.92742554 -20.29458618 7.26742554 C-20.62458618 7.92742554 -20.95458618 8.58742554 -21.29458618 9.26742554 C-21.29458618 8.27742554 -21.29458618 7.28742554 -21.29458618 6.26742554 C-22.92000811 6.91219623 -24.54491042 7.55827697 -26.16958618 8.20492554 C-27.07450806 8.56457397 -27.97942993 8.92422241 -28.91177368 9.29476929 C-31.25596285 10.21643816 -31.25596285 10.21643816 -33.29458618 11.26742554 C-33.95231046 14.29677044 -33.95231046 14.29677044 -34.29458618 17.26742554 C-34.62458618 16.60742554 -34.95458618 15.94742554 -35.29458618 15.26742554 C-38.32789688 16.30741778 -40.3664927 17.32705534 -42.85708618 19.39242554 C-45.29458618 21.26742554 -45.29458618 21.26742554 -49.29458618 21.26742554 C-49.29458618 22.58742554 -49.29458618 23.90742554 -49.29458618 25.26742554 C-50.28458618 25.59742554 -51.27458618 25.92742554 -52.29458618 26.26742554 C-51.96458618 27.58742554 -51.63458618 28.90742554 -51.29458618 30.26742554 C-52.28458618 30.26742554 -53.27458618 30.26742554 -54.29458618 30.26742554 C-54.56271118 30.98930054 -54.83083618 31.71117554 -55.10708618 32.45492554 C-56.2935998 35.26508937 -57.56944257 37.7515911 -59.29458618 40.26742554 C-59.95458618 40.26742554 -60.61458618 40.26742554 -61.29458618 40.26742554 C-59.62986445 31.90464697 -54.15349864 24.2594951 -48.29458618 18.26742554 C-47.63458618 18.26742554 -46.97458618 18.26742554 -46.29458618 18.26742554 C-46.29458618 17.60742554 -46.29458618 16.94742554 -46.29458618 16.26742554 C-44.64458618 15.60742554 -42.99458618 14.94742554 -41.29458618 14.26742554 C-41.29458618 13.60742554 -41.29458618 12.94742554 -41.29458618 12.26742554 C-28.85152569 3.00131666 -15.18468879 -0.04187691 0 0 Z " fill="#4EB790" transform="translate(113.29458618164063,54.732574462890625)"/>
<path d="M0 0 C0.66 0.33 1.32 0.66 2 1 C0.81537342 2.96888888 0.81537342 2.96888888 -1 5 C-3.29275227 5.49909532 -3.29275227 5.49909532 -6.04597473 5.49777794 C-7.09511645 5.50697553 -8.14425817 5.51617312 -9.22519207 5.52564943 C-10.38169168 5.5153623 -11.53819128 5.50507518 -12.72973633 5.49447632 C-14.56800476 5.50171956 -14.56800476 5.50171956 -16.44340992 5.50910914 C-19.8516377 5.51845344 -23.25897033 5.50977865 -26.66711664 5.49358058 C-30.33997296 5.48044814 -34.01277542 5.49031879 -37.68563843 5.49734497 C-44.88328489 5.5074398 -52.0807479 5.49613229 -59.27837157 5.47764437 C-67.65480474 5.4569001 -76.03119799 5.45701612 -84.40765202 5.45798953 C-99.35025734 5.45899134 -114.29277712 5.44065239 -129.23535156 5.41162109 C-143.74513304 5.38344511 -158.25483922 5.3692795 -172.76464844 5.37060547 C-173.65826273 5.37068538 -174.55187702 5.37076529 -175.47257054 5.37084763 C-176.3646178 5.37092834 -177.25666506 5.37100905 -178.17574406 5.3710922 C-194.67932633 5.37247103 -211.18287651 5.36069666 -227.6864484 5.34278577 C-233.52954289 5.33674637 -239.37263149 5.33462585 -245.21572876 5.33372116 C-252.33350245 5.33235847 -259.45122208 5.32345131 -266.56897283 5.30505554 C-270.20271235 5.29580588 -273.83638263 5.28973357 -277.47013474 5.29224396 C-281.40356566 5.29482967 -285.33685666 5.28196861 -289.27026367 5.26742554 C-290.42676328 5.27052274 -291.58326288 5.27361995 -292.77480793 5.276811 C-293.82394965 5.27036211 -294.87309137 5.26391322 -295.95402527 5.25726891 C-296.86258868 5.25586006 -297.7711521 5.25445121 -298.70724773 5.25299966 C-301 5 -301 5 -304 3 C-303.67 2.34 -303.34 1.68 -303 1 C-301.33388095 0.957279 -299.66617115 0.95936168 -298 1 C-297.67 1.33 -297.34 1.66 -297 2 C-295.44506595 2.09605425 -293.8857504 2.12187814 -292.3278532 2.12025452 C-291.31117744 2.12162887 -290.29450168 2.12300322 -289.24701756 2.12441921 C-288.11650198 2.12082425 -286.9859864 2.11722929 -285.82121277 2.11352539 C-284.03556859 2.11374868 -284.03556859 2.11374868 -282.2138508 2.11397648 C-278.89454937 2.11339958 -275.57530834 2.10831686 -272.25601757 2.10140657 C-268.68196679 2.09505631 -265.1079148 2.0944653 -261.53385925 2.0932312 C-255.3356742 2.09033869 -249.13750098 2.08388979 -242.93932152 2.07516479 C-233.97333807 2.06263624 -225.00735904 2.0565399 -216.04136828 2.05223143 C-201.49038461 2.04515662 -186.93940648 2.03434912 -172.38842773 2.02050781 C-171.51678296 2.01968 -170.64513819 2.01885219 -169.74707995 2.01799929 C-162.67570013 2.01125556 -155.60432049 2.00433192 -148.53294086 1.99739647 C-142.35618917 1.99134525 -136.17943741 1.98536445 -130.00268555 1.97949219 C-129.13300717 1.97866406 -128.2633288 1.97783593 -127.36729654 1.97698271 C-112.87596816 1.96330529 -98.38463968 1.95354125 -83.89330655 1.94658184 C-74.9483442 1.94209519 -66.00339831 1.93404385 -57.05844364 1.92143703 C-50.92993405 1.91302228 -44.80142826 1.90812308 -38.67291328 1.90601182 C-35.13426072 1.90466438 -31.59562948 1.90164034 -28.05698395 1.89425278 C-24.22456437 1.88628205 -20.39216651 1.88599725 -16.55973816 1.88647461 C-15.43591474 1.88287965 -14.31209133 1.87928469 -13.15421265 1.87558079 C-12.12971365 1.87695514 -11.10521465 1.87832949 -10.04967022 1.87974548 C-8.72222161 1.87836279 -8.72222161 1.87836279 -7.36795586 1.87695217 C-5.10956101 1.9943068 -3.16498215 2.36700187 -1 3 C-0.67 2.01 -0.34 1.02 0 0 Z " fill="#3B937D" transform="translate(401,440)"/>
<path d="M0 0 C1.03875664 -0.00445784 2.07751328 -0.00891569 3.1477474 -0.01350862 C4.84980728 -0.01323207 4.84980728 -0.01323207 6.58625221 -0.01294994 C7.79683945 -0.01662663 9.00742669 -0.02030332 10.2546984 -0.02409142 C13.61212511 -0.03320137 16.96950302 -0.03782426 20.32693744 -0.04048073 C23.94953654 -0.04439122 27.57212158 -0.05396919 31.19471169 -0.0626936 C39.94323738 -0.0824394 48.6917642 -0.09252289 57.4403066 -0.10142139 C61.56461534 -0.10580832 65.68892279 -0.11117417 69.81323051 -0.11641026 C83.53191232 -0.13342243 97.25059333 -0.14791447 110.96928406 -0.155159 C114.52793695 -0.15706876 118.08658983 -0.15898911 121.64524269 -0.16094494 C122.52968373 -0.16142868 123.41412477 -0.16191242 124.32536705 -0.16241082 C138.63831191 -0.17070312 152.95117298 -0.19602653 167.26408128 -0.22852562 C181.9736851 -0.26165181 196.68324642 -0.27961287 211.39288771 -0.28280324 C219.64570285 -0.28496345 227.89839588 -0.29363992 236.15117455 -0.31926441 C243.18293272 -0.34104771 250.21453912 -0.34898463 257.24632721 -0.33929763 C260.82901035 -0.33477456 264.41138087 -0.33652137 267.99402046 -0.35605907 C286.88246917 -0.45319689 302.33283552 -0.11932274 318.7726841 10.13422108 C317.2876841 11.12422108 317.2876841 11.12422108 315.7726841 12.13422108 C315.4426841 11.47422108 315.1126841 10.81422108 314.7726841 10.13422108 C312.79423056 9.40510139 312.79423056 9.40510139 310.4601841 8.94672108 C309.68030128 8.76754139 308.90041847 8.5883617 308.09690285 8.40375233 C305.68063651 8.12354665 304.07025457 8.39289971 301.7726841 9.13422108 C301.7726841 8.47422108 301.7726841 7.81422108 301.7726841 7.13422108 C300.7826841 7.13422108 299.7926841 7.13422108 298.7726841 7.13422108 C298.7726841 6.14422108 298.7726841 5.15422108 298.7726841 4.13422108 C297.2876841 4.62922108 297.2876841 4.62922108 295.7726841 5.13422108 C295.1126841 4.80422108 294.4526841 4.47422108 293.7726841 4.13422108 C293.7726841 3.47422108 293.7726841 2.81422108 293.7726841 2.13422108 C293.1539341 2.31984608 292.5351841 2.50547108 291.8976841 2.69672108 C289.7726841 3.13422108 289.7726841 3.13422108 287.7726841 2.13422108 C286.14150812 2.04039405 284.50648412 2.01048732 282.872612 2.01117325 C281.83057802 2.0091822 280.78854404 2.00719115 279.71493328 2.00513977 C277.98441791 2.00950903 277.98441791 2.00950903 276.21894264 2.01396656 C275.00033519 2.01311214 273.78172774 2.01225771 272.52619278 2.01137739 C269.13302115 2.01001063 265.73990666 2.01315276 262.34674191 2.01815546 C258.69166452 2.02246077 255.036589 2.02101347 251.38150978 2.02025318 C245.04528189 2.019728 238.70906428 2.02287422 232.37283897 2.02849102 C223.2116416 2.03660678 214.05044921 2.03922132 204.88924862 2.04047901 C190.02698602 2.04266941 175.16472889 2.04932918 160.30246925 2.05878162 C145.86236537 2.06795605 131.42226297 2.07503673 116.98215675 2.07928944 C115.6477579 2.07968352 115.6477579 2.07968352 114.2864015 2.08008557 C109.82368954 2.08139057 105.36097757 2.08265429 100.8982656 2.08389747 C63.85640123 2.09426971 26.81454309 2.1118877 -10.2273159 2.13422108 C-10.2273159 1.80422108 -10.2273159 1.47422108 -10.2273159 1.13422108 C-6.75791772 0.34942348 -3.55424125 0.00710103 0 0 Z " fill="#8DCCB5" transform="translate(106.22731590270996,54.86577892303467)"/>
<path d="M0 0 C0.66 0.66 1.32 1.32 2 2 C1.67 2.99 1.34 3.98 1 5 C2.12109566 6.62493901 2.12109566 6.62493901 4 8 C7.12549017 8.25048636 7.12549017 8.25048636 10 8 C10 9.98 10 11.96 10 14 C10.886875 14.391875 11.77375 14.78375 12.6875 15.1875 C16.19877206 17.10876207 18.44207223 18.93048668 21 22 C21.8125 24.8125 21.8125 24.8125 22 27 C16.46392088 23.05670342 11.39356555 18.75174857 6.39453125 14.1484375 C3.99955144 11.99959754 1.53040422 9.98656956 -1 8 C-4.21549219 9.37806808 -5.97220001 10.88609739 -8.125 13.625 C-9.6328125 15.5390625 -9.6328125 15.5390625 -11 17 C-11.66 17 -12.32 17 -13 17 C-13.24621094 17.56589844 -13.49242187 18.13179687 -13.74609375 18.71484375 C-15.21536224 21.39248258 -16.97752435 23.33043612 -19.0625 25.5625 C-22.41951074 29.2109554 -25.59678705 32.93601257 -28.6875 36.8125 C-31.85842485 40.73999639 -34.95426429 43.99163242 -39 47 C-38.12353339 42.76374473 -36.25385485 39.84712299 -33 37 C-32.34 37 -31.68 37 -31 37 C-31 36.34 -31 35.68 -31 35 C-30.34 35 -29.68 35 -29 35 C-29 34.34 -29 33.68 -29 33 C-28.34 33 -27.68 33 -27 33 C-26.9175 31.88625 -26.835 30.7725 -26.75 29.625 C-26.37875 27.830625 -26.37875 27.830625 -26 26 C-24.1875 24.9375 -24.1875 24.9375 -22 24 C-19.75592746 20.96798075 -19.75592746 20.96798075 -18 18 C-17.01 18.33 -16.02 18.66 -15 19 C-14.7525 18.46375 -14.505 17.9275 -14.25 17.375 C-11.85315524 12.82099495 -9.49819917 8.6989195 -5 6 C-4.34 6 -3.68 6 -3 6 C-3 5.01 -3 4.02 -3 3 C-2.34 3 -1.68 3 -1 3 C-0.67 2.01 -0.34 1.02 0 0 Z " fill="#49B490" transform="translate(358,128)"/>
<path d="M0 0 C0.77086462 2.92774769 1.16182513 5.52773062 1.1875 8.5625 C1.20167969 9.32691406 1.21585938 10.09132813 1.23046875 10.87890625 C1 13 1 13 -1 16 C-1.20063259 18.49789863 -1.28527116 20.88546443 -1.2784729 23.38407898 C-1.2842653 24.14209944 -1.2900577 24.9001199 -1.29602563 25.68111068 C-1.31307009 28.22844921 -1.31590593 30.77560705 -1.31884766 33.32299805 C-1.32814277 35.14608202 -1.33831082 36.96916172 -1.34928894 38.79223633 C-1.37665 43.7485031 -1.39175641 48.70474136 -1.40471697 53.66106391 C-1.42032084 58.83810695 -1.44711976 64.01509152 -1.4727478 69.1920929 C-1.51958427 78.99865239 -1.5563048 88.80522283 -1.58942068 98.61183721 C-1.62760771 109.7749711 -1.67702679 120.93804634 -1.72740483 132.10113084 C-1.83079708 155.06737712 -1.92003373 178.03366106 -2 201 C-2.33 201 -2.66 201 -3 201 C-3.07011446 176.12176648 -3.12300016 151.24354779 -3.15543652 126.36523533 C-3.1708983 114.81352496 -3.19197473 103.26187602 -3.22631836 91.71020508 C-3.25624171 81.64051091 -3.27558001 71.57086124 -3.28226548 61.50112385 C-3.28617274 56.17042242 -3.29534117 50.83984829 -3.31719017 45.5091877 C-3.33760162 40.48842663 -3.34382436 35.4678449 -3.33932304 30.44704628 C-3.34014616 28.60766372 -3.34608396 26.76827496 -3.35761642 24.92892838 C-3.45970442 7.80181928 -3.45970442 7.80181928 0 0 Z " fill="#379F7E" transform="translate(51,95)"/>
<path d="M0 0 C-3.84141272 2.47833078 -7.83054212 4.3197981 -12.01171875 6.1328125 C-13.35721962 6.71965178 -14.68706346 7.34353173 -16 8 C-16.65772428 11.02934491 -16.65772428 11.02934491 -17 14 C-17.33 13.34 -17.66 12.68 -18 12 C-21.0333107 13.03999224 -23.07190652 14.0596298 -25.5625 16.125 C-28 18 -28 18 -32 18 C-32 19.32 -32 20.64 -32 22 C-32.99 22.33 -33.98 22.66 -35 23 C-34.67 24.32 -34.34 25.64 -34 27 C-34.99 27 -35.98 27 -37 27 C-37.268125 27.721875 -37.53625 28.44375 -37.8125 29.1875 C-38.99901362 31.99766383 -40.27485639 34.48416557 -42 37 C-42.66 37 -43.32 37 -44 37 C-42.33527827 28.63722144 -36.85891246 20.99206956 -31 15 C-30.34 15 -29.68 15 -29 15 C-29 14.34 -29 13.68 -29 13 C-27.35 12.34 -25.7 11.68 -24 11 C-24 10.34 -24 9.68 -24 9 C-17.98235657 4.51877617 -7.69446922 -2.68779404 0 0 Z " fill="#63C4A2" transform="translate(96,58)"/>
<path d="M0 0 C5.19892904 4.35594144 7.37774368 12.43832108 8.27438736 19.0114975 C8.67443984 24.04402276 8.57668636 29.07409893 8.48828125 34.1171875 C8.47892731 35.71142453 8.47182345 37.30567617 8.46684265 38.89993286 C8.44797514 43.04629939 8.39905683 47.19175566 8.34332275 51.33776855 C8.29168609 55.58833511 8.26923495 59.83905231 8.24414062 64.08984375 C8.19091193 72.3936416 8.10585424 80.69670681 8 89 C7.67 89 7.34 89 7 89 C6.82135179 84.60458889 6.65715291 80.20872497 6.5 75.8125 C6.47532654 75.13515808 6.45065308 74.45781616 6.42523193 73.75994873 C6.12073382 65.17610925 5.96632386 56.60889076 6.0390625 48.01953125 C6.04496399 47.19304581 6.05086548 46.36656036 6.0569458 45.51502991 C6.088202 41.46876583 6.1375938 37.42385356 6.21289062 33.37817383 C6.31281705 25.67173489 5.98286922 19.23072485 3 12 C3 11.01 3 10.02 3 9 C2.01 8.67 1.02 8.34 0 8 C0.33 7.01 0.66 6.02 1 5 C0.34 5 -0.32 5 -1 5 C-0.67 3.35 -0.34 1.7 0 0 Z " fill="#41AC88" transform="translate(444,87)"/>
<path d="M0 0 C0.77086462 2.92774769 1.16182513 5.52773062 1.1875 8.5625 C1.20167969 9.32691406 1.21585938 10.09132813 1.23046875 10.87890625 C1 13 1 13 -1 16 C-1.32906294 18.72847523 -1.32906294 18.72847523 -1.31884766 21.84838867 C-1.33871735 23.0494072 -1.35858704 24.25042572 -1.37905884 25.48783875 C-1.39061005 26.78478165 -1.40216125 28.08172455 -1.4140625 29.41796875 C-1.43277377 30.75890801 -1.45234716 32.0998355 -1.4727478 33.44075012 C-1.52407965 36.9670009 -1.56369948 40.49328987 -1.60089111 44.01971436 C-1.64092432 47.61935885 -1.69201974 51.21884439 -1.7421875 54.81835938 C-1.83895905 61.87878985 -1.92335981 68.93931999 -2 76 C-2.33 76 -2.66 76 -3 76 C-3.06975897 67.41975266 -3.12294189 58.83962542 -3.15543652 50.25916386 C-3.17103868 46.27415453 -3.19217616 42.28934039 -3.22631836 38.30444336 C-3.25910783 34.45297282 -3.27689392 30.60168908 -3.28463173 26.75008965 C-3.29014033 25.28659567 -3.30089662 23.82311098 -3.31719017 22.35969734 C-3.40258597 14.3660525 -3.13473048 7.46622658 0 0 Z " fill="#44AC88" transform="translate(51,95)"/>
<path d="M0 0 C1.1157177 3.34715311 1.1807689 4.71071522 0 8 C-0.78375 8.309375 -1.5675 8.61875 -2.375 8.9375 C-6.01495096 10.41081348 -6.33635789 12.53407894 -8 16 C-12.31578947 20 -12.31578947 20 -15 20 C-15.33 21.98 -15.66 23.96 -16 26 C-17.65 26.33 -19.3 26.66 -21 27 C-21 27.66 -21 28.32 -21 29 C-21.66 28.67 -22.32 28.34 -23 28 C-22.67 27.34 -22.34 26.68 -22 26 C-21.34 26 -20.68 26 -20 26 C-19.58572754 25.11598511 -19.58572754 25.11598511 -19.16308594 24.21411133 C-18.05858 22.11151595 -16.87808344 20.41823438 -15.390625 18.57421875 C-14.62878906 17.62579102 -14.62878906 17.62579102 -13.8515625 16.65820312 C-13.32304687 16.00787109 -12.79453125 15.35753906 -12.25 14.6875 C-11.73695313 14.04876953 -11.22390625 13.41003906 -10.6953125 12.75195312 C-7.21004024 8.43039066 -3.62999858 4.20058219 0 0 Z " fill="#50B594" transform="translate(380,168)"/>
<path d="M0 0 C11.35905082 -0.77010514 21.46417332 2.98774752 31 9 C30.01 9.66 29.02 10.32 28 11 C27.67 10.34 27.34 9.68 27 9 C25.02154646 8.27088031 25.02154646 8.27088031 22.6875 7.8125 C21.90761719 7.63332031 21.12773437 7.45414063 20.32421875 7.26953125 C17.90795241 6.98932557 16.29757048 7.25867863 14 8 C14 7.34 14 6.68 14 6 C13.01 6 12.02 6 11 6 C11 5.01 11 4.02 11 3 C10.01 3.33 9.02 3.66 8 4 C7.34 3.67 6.68 3.34 6 3 C6 2.34 6 1.68 6 1 C5.38125 1.20625 4.7625 1.4125 4.125 1.625 C3.42375 1.74875 2.7225 1.8725 2 2 C1.34 1.34 0.68 0.68 0 0 Z " fill="#73C9AB" transform="translate(394,56)"/>
<path d="M0 0 C5.30151793 4.30651163 7.54344528 13.15269132 8.3203125 19.69921875 C8.3125 21.875 8.3125 21.875 8 25 C6.53508849 22.20392978 5.37754078 19.42993234 4.375 16.4375 C4.11460937 15.67308594 3.85421875 14.90867187 3.5859375 14.12109375 C3 12 3 12 3 9 C2.01 8.67 1.02 8.34 0 8 C0.33 7.01 0.66 6.02 1 5 C0.34 5 -0.32 5 -1 5 C-0.67 3.35 -0.34 1.7 0 0 Z " fill="#62C4A4" transform="translate(444,87)"/>
<path d="M0 0 C0.99 0.33 1.98 0.66 3 1 C3 1.66 3 2.32 3 3 C8.83712355 5.72399099 14.76559832 7.41039668 21 9 C21 9.66 21 10.32 21 11 C21.66 11.33 22.32 11.66 23 12 C16.57796028 11.274931 11.16899595 9.37458152 5.4375 6.5 C4.81794434 6.19118896 4.19838867 5.88237793 3.56005859 5.56420898 C-0.86482479 3.27035043 -0.86482479 3.27035043 -2 1 C-1.34 0.67 -0.68 0.34 0 0 Z " fill="#4DA18D" transform="translate(76,432)"/>
<path d="M0 0 C0.99 0 1.98 0 3 0 C1.57811392 4.03112033 -0.35844204 7.17779042 -2.875 10.625 C-3.55304688 11.56601562 -4.23109375 12.50703125 -4.9296875 13.4765625 C-6.81270491 15.77171203 -8.54551986 17.36001103 -11 19 C-11.25 16.6875 -11.25 16.6875 -11 14 C-8.95575462 12.02389614 -7.8823175 11 -5 11 C-4.67 9.35 -4.34 7.7 -4 6 C-3.01 6 -2.02 6 -1 6 C-1.020625 5.195625 -1.04125 4.39125 -1.0625 3.5625 C-1 1 -1 1 0 0 Z " fill="#44A088" transform="translate(443,410)"/>
<path d="M0 0 C0.66 0 1.32 0 2 0 C2 0.66 2 1.32 2 2 C2.99 2 3.98 2 5 2 C5 2.66 5 3.32 5 4 C5.721875 3.67 6.44375 3.34 7.1875 3 C10.01697427 1.99396471 12.02895466 1.83022598 15 2 C13.7251791 4.84383123 12.54862922 7.13754018 10 9 C6.4280278 8.61046394 4.96784978 7.23310781 2.75 4.5 C1.96882812 3.55640625 1.96882812 3.55640625 1.171875 2.59375 C0 1 0 1 0 0 Z " fill="#3EA182" transform="translate(209,281)"/>
<path d="M0 0 C5.13722333 2.80212182 11.09235806 6.27707417 13 12 C10.92446352 12.5534764 9.15634036 13 7 13 C7.33 11.35 7.66 9.7 8 8 C5.91229447 6.88158632 4.14591199 6.0291824 1.8125 5.5625 C1.214375 5.376875 0.61625 5.19125 0 5 C-0.33 4.01 -0.66 3.02 -1 2 C-0.67 1.34 -0.34 0.68 0 0 Z " fill="#7BC7AC" transform="translate(425,66)"/>
<path d="M0 0 C3.44428265 1.44781793 5.36130962 3.27694609 7.75 6.125 C8.36359375 6.84945313 8.9771875 7.57390625 9.609375 8.3203125 C10.29773438 9.15175781 10.29773438 9.15175781 11 10 C10.01 10.495 10.01 10.495 9 11 C8.01 10.34 7.02 9.68 6 9 C5.01 9.33 4.02 9.66 3 10 C2.01 9.34 1.02 8.68 0 8 C0 6 0 6 2 4 C1.34 2.68 0.68 1.36 0 0 Z " fill="#2D9778" transform="translate(185,334)"/>
<path d="M0 0 C0.33 1.32 0.66 2.64 1 4 C1.66 4 2.32 4 3 4 C3.309375 4.804375 3.61875 5.60875 3.9375 6.4375 C4.76335345 8.89080405 4.76335345 8.89080405 6 10 C5.71325582 12.00720923 5.38133299 14.0085944 5 16 C5.66 16.33 6.32 16.66 7 17 C6.34 17.99 5.68 18.98 5 20 C4.35309078 18.3962669 3.70751236 16.79199694 3.0625 15.1875 C2.70285156 14.29417969 2.34320313 13.40085937 1.97265625 12.48046875 C0.24707943 8.07990136 -0.08922893 4.7291332 0 0 Z " fill="#3EA085" transform="translate(48,389)"/>
<path d="M0 0 C3.35829104 1.43714007 5.39970698 3.20977399 7.8125 5.9375 C8.43769531 6.62714844 9.06289062 7.31679688 9.70703125 8.02734375 C10.34705078 9.00380859 10.34705078 9.00380859 11 10 C10.67 10.99 10.34 11.98 10 13 C10 12.34 10 11.68 10 11 C8.68 11.33 7.36 11.66 6 12 C5.34 10.35 4.68 8.7 4 7 C3.34 7 2.68 7 2 7 C2 6.01 2 5.02 2 4 C1.34 4 0.68 4 0 4 C0 2.68 0 1.36 0 0 Z " fill="#35987B" transform="translate(171,319)"/>
<path d="M0 0 C0.93423645 3.01031744 1.04449911 3.86650268 0 7 C-0.66 7 -1.32 7 -2 7 C-2 7.66 -2 8.32 -2 9 C-3.33333333 10.33333333 -4.66666667 11.66666667 -6 13 C-6.33 13.99 -6.66 14.98 -7 16 C-7.66 16 -8.32 16 -9 16 C-9.4717536 12.41598306 -9.10371877 11.15249129 -7.03125 8.10546875 C-6.1959375 7.14253906 -5.360625 6.17960937 -4.5 5.1875 C-3.6646875 4.21167969 -2.829375 3.23585938 -1.96875 2.23046875 C-1.3190625 1.49441406 -0.669375 0.75835937 0 0 Z " fill="#38A281" transform="translate(284,287)"/>
<path d="M0 0 C0.33 0.66 0.66 1.32 1 2 C-0.64964112 6.68845372 -2.19890273 9.68936689 -6 13 C-6.66 13.66 -7.32 14.32 -8 15 C-8.99 14.67 -9.98 14.34 -11 14 C-7.37 9.38 -3.74 4.76 0 0 Z " fill="#4DAB8E" transform="translate(329,231)"/>
<path d="M0 0 C6.91428571 0.94285714 6.91428571 0.94285714 10 3 C10.33 3.99 10.66 4.98 11 6 C11.99 6.66 12.98 7.32 14 8 C14.6875 10.625 14.6875 10.625 15 13 C4.46431765 5.28295475 4.46431765 5.28295475 0 1 C0 0.67 0 0.34 0 0 Z " fill="#4FB593" transform="translate(365,142)"/>
<path d="M0 0 C0.33 0.66 0.66 1.32 1 2 C1.99 2.33 2.98 2.66 4 3 C3.01 3.495 3.01 3.495 2 4 C1.34 3.67 0.68 3.34 0 3 C-0.33 3.99 -0.66 4.98 -1 6 C-1.66 6 -2.32 6 -3 6 C-2.938125 6.763125 -2.87625 7.52625 -2.8125 8.3125 C-3 11 -3 11 -4.375 12.8125 C-6 14 -6 14 -8 14 C-7.46719784 9.77510398 -6.12321801 7.45919284 -3.4375 4.1875 C-2.47650391 3.00220703 -2.47650391 3.00220703 -1.49609375 1.79296875 C-1.00238281 1.20128906 -0.50867188 0.60960937 0 0 Z " fill="#269575" transform="translate(243,338)"/>
<path d="M0 0 C0.33 0.66 0.66 1.32 1 2 C-1.67295679 7.68003318 -6.31922561 13.63109393 -11.9375 16.5 C-12.9584375 16.7475 -12.9584375 16.7475 -14 17 C-9.68339698 10.99926777 -4.97966692 5.45993937 0 0 Z " fill="#D1F0E7" transform="translate(254,249)"/>
<path d="M0 0 C7.51401508 0.85874458 13.7236555 1.621155 20 6 C19.01 6.66 18.02 7.32 17 8 C16.67 7.34 16.34 6.68 16 6 C14.02154646 5.27088031 14.02154646 5.27088031 11.6875 4.8125 C10.90761719 4.63332031 10.12773437 4.45414063 9.32421875 4.26953125 C6.90795241 3.98932557 5.29757048 4.25867863 3 5 C3 4.34 3 3.68 3 3 C2.01 3 1.02 3 0 3 C0 2.01 0 1.02 0 0 Z " fill="#5FC5A1" transform="translate(405,59)"/>
<path d="M0 0 C0.99 0.33 1.98 0.66 3 1 C2.09066991 2.27609323 1.17217147 3.54565553 0.25 4.8125 C-0.26046875 5.52019531 -0.7709375 6.22789062 -1.296875 6.95703125 C-3.02482358 9.02977691 -4.78526476 10.47375854 -7 12 C-7.625 9.625 -7.625 9.625 -8 7 C-6 5 -6 5 -3.4375 4.0625 C-2.2309375 3.5365625 -2.2309375 3.5365625 -1 3 C-0.67 2.01 -0.34 1.02 0 0 Z " fill="#43AC89" transform="translate(297,196)"/>
<path d="M0 0 C2.3125 0.1875 2.3125 0.1875 5 1 C6.9375 3.3125 6.9375 3.3125 8 6 C7.0722505 9.50483143 4.94229987 11.03846676 2 13 C1.34 12.67 0.68 12.34 0 12 C1.32 10.35 2.64 8.7 4 7 C2.79618552 4.50638429 1.54571278 2.31856917 0 0 Z " fill="#52B394" transform="translate(381,155)"/>
<path d="M0 0 C0.5775 0.226875 1.155 0.45375 1.75 0.6875 C0.91855469 1.39326172 0.91855469 1.39326172 0.0703125 2.11328125 C-1.01636719 3.04720703 -1.01636719 3.04720703 -2.125 4 C-2.84429687 4.61488281 -3.56359375 5.22976562 -4.3046875 5.86328125 C-6.44179331 7.7287324 -6.44179331 7.7287324 -8.25 10.6875 C-8.91 10.6875 -9.57 10.6875 -10.25 10.6875 C-10.58 11.6775 -10.91 12.6675 -11.25 13.6875 C-11.58 12.6975 -11.91 11.7075 -12.25 10.6875 C-11.17578125 8.75 -11.17578125 8.75 -9.5625 6.6875 C-9.04300781 6.006875 -8.52351563 5.32625 -7.98828125 4.625 C-3.41348787 -0.47409554 -3.41348787 -0.47409554 0 0 Z " fill="#56B796" transform="translate(355.25,134.3125)"/>
<path d="M0 0 C0.33 0.66 0.66 1.32 1 2 C1.66 2.33 2.32 2.66 3 3 C2 5 1 7 0 9 C-2.32156597 9.40729228 -4.6568787 9.74438677 -7 10 C-4.93992341 6.39486597 -2.6486859 3.19668988 0 0 Z " fill="#3EA486" transform="translate(262,314)"/>
<path d="M0 0 C1 2 1 2 0.375 4.3125 C-1.79817785 8.56007489 -4.4813717 11.2913068 -8.8125 13.3125 C-9.8953125 13.6528125 -9.8953125 13.6528125 -11 14 C-9.625 11.5 -9.625 11.5 -8 9 C-7.34 9 -6.68 9 -6 9 C-5.7525 8.443125 -5.505 7.88625 -5.25 7.3125 C-3.78393985 4.60028873 -1.97010529 2.36412635 0 0 Z " fill="#D4F3EA" transform="translate(276,224)"/>
<path d="M0 0 C-1.375 2 -1.375 2 -3 4 C-3.66 4 -4.32 4 -5 4 C-5.33 4.99 -5.66 5.98 -6 7 C-6 5.35 -6 3.7 -6 2 C-6.99 2.66 -7.98 3.32 -9 4 C-9.99 4.495 -9.99 4.495 -11 5 C-11.33 5.66 -11.66 6.32 -12 7 C-12.33 5.68 -12.66 4.36 -13 3 C-8.51925805 -0.36055646 -5.39449293 -0.27429625 0 0 Z " fill="#43BD92" transform="translate(104,57)"/>
<path d="M0 0 C1.20883939 4.31447553 1.64937235 8.54716103 1 13 C-1 15.0625 -1 15.0625 -3 16 C-3.37851209 10.06997733 -2.10575375 5.52760359 0 0 Z " fill="#6CC7A8" transform="translate(51,95)"/>
<path d="M0 0 C0 1.32 0 2.64 0 4 C-2.64 4.33 -5.28 4.66 -8 5 C-7.67 3.35 -7.34 1.7 -7 0 C-3.86650268 -1.04449911 -3.01031744 -0.93423645 0 0 Z " fill="#11906F" transform="translate(432,425)"/>
<path d="M0 0 C1 2 1 2 0.25 4.5 C-1 7 -1 7 -4 9 C-4.33 9.99 -4.66 10.98 -5 12 C-5.99 12 -6.98 12 -8 12 C-8 12.66 -8 13.32 -8 14 C-8.66 13.67 -9.32 13.34 -10 13 C-5.05 6.565 -5.05 6.565 0 0 Z " fill="#44A387" transform="translate(254,324)"/>
<path d="M0 0 C2.31 0.66 4.62 1.32 7 2 C7.66 4.64 8.32 7.28 9 10 C7.86800647 9.0919838 6.74467637 8.17316174 5.625 7.25 C4.99851563 6.73953125 4.37203125 6.2290625 3.7265625 5.703125 C1.91687682 3.91800519 0.99882545 2.32050356 0 0 Z " fill="#49A78B" transform="translate(189,259)"/>
<path d="M0 0 C0.33 0.66 0.66 1.32 1 2 C-0.21974665 5.59248766 -1.87688888 8.85822445 -4 12 C-7.3125 13.625 -7.3125 13.625 -10 14 C-6.84577733 9.17403931 -3.71080883 4.42442592 0 0 Z " fill="#4EAF91" transform="translate(344,212)"/>
<path d="M0 0 C0 3.57430369 -0.57148438 3.93787409 -2.9375 6.4375 C-5.28062213 8.91356523 -6.41263067 10.61705004 -7 14 C-7.66 14 -8.32 14 -9 14 C-8.8125 10.6875 -8.8125 10.6875 -8 7 C-5.4375 5.25 -5.4375 5.25 -3 4 C-3 3.01 -3 2.02 -3 1 C-2.01 0.67 -1.02 0.34 0 0 Z " fill="#239F78" transform="translate(293,280)"/>
<path d="M0 0 C0.33 1.32 0.66 2.64 1 4 C0.01 4.33 -0.98 4.66 -2 5 C-3.21869929 7.50447516 -3.21869929 7.50447516 -4 10 C-4.99 10 -5.98 10 -7 10 C-6.84518205 7.29068581 -6.51827919 5.53415961 -4.59765625 3.5546875 C-3.10228292 2.32320358 -1.5537076 1.1570163 0 0 Z " fill="#269576" transform="translate(230,356)"/>
<path d="M0 0 C0.66 0.33 1.32 0.66 2 1 C0.88266271 2.50571657 -0.24410035 4.00444292 -1.375 5.5 C-2.00148438 6.3353125 -2.62796875 7.170625 -3.2734375 8.03125 C-3.84320313 8.6809375 -4.41296875 9.330625 -5 10 C-5.66 10 -6.32 10 -7 10 C-6.34 7.36 -5.68 4.72 -5 2 C-3.68 1.67 -2.36 1.34 -1 1 C-0.67 0.67 -0.34 0.34 0 0 Z " fill="#51B292" transform="translate(311,182)"/>
<path d="M0 0 C0.66 0 1.32 0 2 0 C2.95261487 4.76307437 3.08333357 9.1666528 3 14 C2.34 14 1.68 14 1 14 C1.020625 13.278125 1.04125 12.55625 1.0625 11.8125 C0.95430926 6.34489849 0.95430926 6.34489849 -2 2 C-1.34 1.34 -0.68 0.68 0 0 Z " fill="#158D6C" transform="translate(53,397)"/>
<path d="M0 0 C0.8125 1.6875 0.8125 1.6875 1 4 C-1.3125 6.625 -1.3125 6.625 -4 9 C-4.66 9.66 -5.32 10.32 -6 11 C-8.125 10.625 -8.125 10.625 -10 10 C-9.0925 9.278125 -8.185 8.55625 -7.25 7.8125 C-4.4298006 5.47347206 -2.19093342 2.94933345 0 0 Z " fill="#D6F3EA" transform="translate(227,280)"/>
<path d="M0 0 C0.33 0 0.66 0 1 0 C1 2.31 1 4.62 1 7 C0.34 7 -0.32 7 -1 7 C-1.33 7.66 -1.66 8.32 -2 9 C-2.99 8.67 -3.98 8.34 -5 8 C-3.6299034 5.0490227 -2.06764583 2.51713405 0 0 Z " fill="#4BB392" transform="translate(356,197)"/>
<path d="M0 0 C-0.804375 0.474375 -1.60875 0.94875 -2.4375 1.4375 C-4.84753488 2.76900154 -4.84753488 2.76900154 -6 4 C-8.67058851 4.14115161 -11.32432238 4.04247107 -14 4 C-9.89239426 0.52433361 -5.34448487 -2.0555711 0 0 Z " fill="#83CEB5" transform="translate(96,58)"/>
<path d="M0 0 C0.33 1.32 0.66 2.64 1 4 C0.01 4 -0.98 4 -2 4 C-1.67 4.99 -1.34 5.98 -1 7 C-1.99 7.99 -2.98 8.98 -4 10 C-4.99 9.67 -5.98 9.34 -7 9 C-4.69 6.03 -2.38 3.06 0 0 Z " fill="#45A989" transform="translate(292,277)"/>
<path d="M0 0 C6.41106383 2.13702128 6.41106383 2.13702128 8.25 5.4375 C8.8275 6.613125 9.405 7.78875 10 9 C9.67 9.66 9.34 10.32 9 11 C7.62437146 9.71034824 6.29233607 8.37310707 5 7 C5 6.34 5 5.68 5 5 C4.34 5 3.68 5 3 5 C3 4.34 3 3.68 3 3 C2.34 3 1.68 3 1 3 C0.67 2.01 0.34 1.02 0 0 Z " fill="#48A588" transform="translate(166,234)"/>
<path d="M0 0 C0.99 0 1.98 0 3 0 C3.33 0.99 3.66 1.98 4 3 C2.78515625 4.82421875 2.78515625 4.82421875 1.0625 6.6875 C0.49660156 7.31011719 -0.06929688 7.93273437 -0.65234375 8.57421875 C-1.09707031 9.04472656 -1.54179687 9.51523438 -2 10 C-3 7 -3 7 -2.125 5 C-1.75375 4.34 -1.3825 3.68 -1 3 C-0.67 2.01 -0.34 1.02 0 0 Z " fill="#43A887" transform="translate(275,219)"/>
<path d="M0 0 C0.66 0 1.32 0 2 0 C4.24828052 4.49656104 4.16682272 8.07872966 4 13 C3.33333333 11.66666667 2.66666667 10.33333333 2 9 C1.62875 8.360625 1.2575 7.72125 0.875 7.0625 C-0.17440531 4.58890178 -0.14780359 2.66046462 0 0 Z " fill="#70C5A7" transform="translate(448,99)"/>
<path d="M0 0 C4.875 4.625 4.875 4.625 6 8 C5.01 8.33 4.02 8.66 3 9 C2.67 8.34 2.34 7.68 2 7 C1.34 7 0.68 7 0 7 C0 4.69 0 2.38 0 0 Z " fill="#6BC5A7" transform="translate(438,78)"/>
<path d="M0 0 C1 2 1 2 0.0625 5.125 C-0.288125 6.07375 -0.63875 7.0225 -1 8 C-2.65 8.33 -4.3 8.66 -6 9 C-6 9.66 -6 10.32 -6 11 C-6.66 10.67 -7.32 10.34 -8 10 C-7.67 9.34 -7.34 8.68 -7 8 C-6.34 8 -5.68 8 -5 8 C-4.731875 7.4225 -4.46375 6.845 -4.1875 6.25 C-2.98280141 3.9674132 -1.59201885 2.0262058 0 0 Z " fill="#56B696" transform="translate(365,186)"/>
<path d="M0 0 C0.66 0.33 1.32 0.66 2 1 C-3.0940919 7.70459519 -3.0940919 7.70459519 -6.875 8.9375 C-7.57625 8.958125 -8.2775 8.97875 -9 9 C-8.34 8.67 -7.68 8.34 -7 8 C-7 7.34 -7 6.68 -7 6 C-5.46875 4.4921875 -5.46875 4.4921875 -3.5 2.875 C-2.8503125 2.33617187 -2.200625 1.79734375 -1.53125 1.2421875 C-0.77328125 0.62730469 -0.77328125 0.62730469 0 0 Z " fill="#DAF6EE" transform="translate(145,247)"/>
<path d="M0 0 C0.99 0.33 1.98 0.66 3 1 C2.21718695 2.33855056 1.42348123 3.67073644 0.625 5 C0.18414062 5.7425 -0.25671875 6.485 -0.7109375 7.25 C-1.34902344 8.11625 -1.34902344 8.11625 -2 9 C-2.66 9 -3.32 9 -4 9 C-3.35455571 5.51460083 -1.89865603 2.97180943 0 0 Z " fill="#66C2A4" transform="translate(56,86)"/>
<path d="M0 0 C0.99 0 1.98 0 3 0 C1.6302836 3.99500618 -0.25722422 6.80009492 -3 10 C-3.33 8.68 -3.66 7.36 -4 6 C-3.01 6 -2.02 6 -1 6 C-1.020625 5.195625 -1.04125 4.39125 -1.0625 3.5625 C-1 1 -1 1 0 0 Z " fill="#59AC98" transform="translate(443,410)"/>
<path d="M0 0 C1 2 1 2 0.4375 4.5 C-1 7 -1 7 -4.125 8.3125 C-5.07375 8.539375 -6.0225 8.76625 -7 9 C-6.02180976 7.68677212 -5.0424189 6.37443848 -4.0625 5.0625 C-3.51722656 4.33160156 -2.97195313 3.60070312 -2.41015625 2.84765625 C-1 1 -1 1 0 0 Z " fill="#D4F4EB" transform="translate(292,206)"/>
<path d="M0 0 C0.66 1.32 1.32 2.64 2 4 C0.68 4.99 -0.64 5.98 -2 7 C-3.0625 5.125 -3.0625 5.125 -4 3 C-3 1 -3 1 0 0 Z " fill="#44B08B" transform="translate(317,173)"/>
<path d="M0 0 C1.32 0.33 2.64 0.66 4 1 C1.69 3.31 -0.62 5.62 -3 8 C-3.33 7.01 -3.66 6.02 -4 5 C-3.34 4.01 -2.68 3.02 -2 2 C-1.34 2 -0.68 2 0 2 C0 1.34 0 0.68 0 0 Z " fill="#429F83" transform="translate(235,267)"/>
<path d="M0 0 C0.33 0.99 0.66 1.98 1 3 C0.01 4.485 0.01 4.485 -1 6 C-0.69159401 8.15274948 -0.69159401 8.15274948 0 10 C-1.32 9.01 -2.64 8.02 -4 7 C-3.43628586 3.73045798 -2.50037734 2.17424117 0 0 Z " fill="#DCF7F0" transform="translate(129,261)"/>
<path d="M0 0 C0.66 0.66 1.32 1.32 2 2 C0.35 3.65 -1.3 5.3 -3 7 C-3.99 6.67 -4.98 6.34 -6 6 C-5.25 3.5625 -5.25 3.5625 -4 1 C-2 0.0625 -2 0.0625 0 0 Z " fill="#4BAA8E" transform="translate(159,232)"/>
<path d="M0 0 C1.32 0.33 2.64 0.66 4 1 C4 1.66 4 2.32 4 3 C5.65 3.33 7.3 3.66 9 4 C9.33 5.32 9.66 6.64 10 8 C7.50638429 6.79618552 5.31856917 5.54571278 3 4 C3 3.34 3 2.68 3 2 C2.01 1.67 1.02 1.34 0 1 C0 0.67 0 0.34 0 0 Z " fill="#63B39A" transform="translate(64,425)"/>
<path d="M0 0 C0.33 0.99 0.66 1.98 1 3 C1.78375 3.103125 2.5675 3.20625 3.375 3.3125 C6 4 6 4 8 7 C7.01 7.495 7.01 7.495 6 8 C5.34 7.34 4.68 6.68 4 6 C2.68 6 1.36 6 0 6 C-0.38218767 4.34385343 -0.71395102 2.67542976 -1 1 C-0.67 0.67 -0.34 0.34 0 0 Z " fill="#1F906F" transform="translate(203,354)"/>
<path d="M0 0 C4.8 2.46153846 4.8 2.46153846 5.8125 5.1875 C5.874375 5.785625 5.93625 6.38375 6 7 C5.67 6.34 5.34 5.68 5 5 C3.68 5.33 2.36 5.66 1 6 C0.34 4.35 -0.32 2.7 -1 1 C-0.67 0.67 -0.34 0.34 0 0 Z " fill="#209873" transform="translate(176,325)"/>
<path d="M0 0 C0.66 0 1.32 0 2 0 C3.2890625 1.53125 3.2890625 1.53125 4.625 3.5 C5.07101563 4.1496875 5.51703125 4.799375 5.9765625 5.46875 C6.31429687 5.9740625 6.65203125 6.479375 7 7 C4.625 6.6875 4.625 6.6875 2 6 C0 3 0 3 0 0 Z " fill="#D8F6EE" transform="translate(169,239)"/>
<path d="M0 0 C0.99 0.33 1.98 0.66 3 1 C2.6875 3.375 2.6875 3.375 2 6 C1.01 6.66 0.02 7.32 -1 8 C-1.33 7.01 -1.66 6.02 -2 5 C-1.34 4.67 -0.68 4.34 0 4 C0 2.68 0 1.36 0 0 Z " fill="#40BA8F" transform="translate(61,80)"/>
<path d="M0 0 C0.33 0.66 0.66 1.32 1 2 C1.99 2.33 2.98 2.66 4 3 C3.01 3.495 3.01 3.495 2 4 C1.34 3.67 0.68 3.34 0 3 C-0.33 3.99 -0.66 4.98 -1 6 C-2.32 6.33 -3.64 6.66 -5 7 C-3.35 4.69 -1.7 2.38 0 0 Z " fill="#38997C" transform="translate(243,338)"/>
<path d="M0 0 C0.33 0.66 0.66 1.32 1 2 C-0.65 4.31 -2.3 6.62 -4 9 C-4.99 8.67 -5.98 8.34 -7 8 C-5.71937515 6.2925002 -4.38232443 4.62626404 -3 3 C-2.34 3 -1.68 3 -1 3 C-0.67 2.01 -0.34 1.02 0 0 Z " fill="#CEF2E8" transform="translate(348,142)"/>
<path d="M0 0 C0.99 0.33 1.98 0.66 3 1 C3 2.65 3 4.3 3 6 C1.02 6.99 1.02 6.99 -1 8 C-0.67 5.36 -0.34 2.72 0 0 Z " fill="#3EB78C" transform="translate(52,95)"/>
<path d="M0 0 C-1.65 1.65 -3.3 3.3 -5 5 C-5.66 3.68 -6.32 2.36 -7 1 C-4.53721199 -0.231394 -2.7204945 -0.07159196 0 0 Z " fill="#45A58D" transform="translate(431,429)"/>
<path d="M0 0 C0.33 0 0.66 0 1 0 C1 1.65 1 3.3 1 5 C-0.98 5.66 -2.96 6.32 -5 7 C-4.34 5.68 -3.68 4.36 -3 3 C-2.34 3 -1.68 3 -1 3 C-0.67 2.01 -0.34 1.02 0 0 Z " fill="#3A9E81" transform="translate(268,307)"/>
<path d="M0 0 C2.97 0.495 2.97 0.495 6 1 C6.66 2.98 7.32 4.96 8 7 C6.66382648 6.02471263 5.3311249 5.04466681 4 4.0625 C3.2575 3.51722656 2.515 2.97195312 1.75 2.41015625 C1.1725 1.94480469 0.595 1.47945312 0 1 C0 0.67 0 0.34 0 0 Z " fill="#61BB9D" transform="translate(365,142)"/>
<path d="M0 0 C1.9375 0.3125 1.9375 0.3125 4 1 C4.33 1.99 4.66 2.98 5 4 C2.92446352 4.5534764 1.15634036 5 -1 5 C-0.67 3.35 -0.34 1.7 0 0 Z " fill="#54BF9A" transform="translate(433,74)"/>
<path d="M0 0 C0.66 0 1.32 0 2 0 C2 0.66 2 1.32 2 2 C2.66 2 3.32 2 4 2 C4.33 1.34 4.66 0.68 5 0 C5.33 1.65 5.66 3.3 6 5 C5.01 5.33 4.02 5.66 3 6 C2.01 4.02 1.02 2.04 0 0 Z " fill="#49A88E" transform="translate(54,411)"/>
<path d="M0 0 C0.33 1.32 0.66 2.64 1 4 C1.66 4 2.32 4 3 4 C3.33 5.32 3.66 6.64 4 8 C3.01 8.66 2.02 9.32 1 10 C-0.1577506 6.52674819 -0.06866652 3.63932552 0 0 Z " fill="#4EA691" transform="translate(48,389)"/>
<path d="M0 0 C0.99 0.495 0.99 0.495 2 1 C1.67 2.65 1.34 4.3 1 6 C0.67 6 0.34 6 0 6 C0 4.02 0 2.04 0 0 Z M-4 7 C-3.01 7.33 -2.02 7.66 -1 8 C-1.66 8.66 -2.32 9.32 -3 10 C-3.99 10 -4.98 10 -6 10 C-6 9.34 -6 8.68 -6 8 C-5.34 7.67 -4.68 7.34 -4 7 Z " fill="#239775" transform="translate(269,306)"/>
<path d="M0 0 C2.31 1.98 4.62 3.96 7 6 C6.01 6.33 5.02 6.66 4 7 C1.23609263 4.59660228 0.95934081 3.83736322 0 0 Z " fill="#54AC91" transform="translate(152,297)"/>
<path d="M0 0 C0.33 0.99 0.66 1.98 1 3 C-0.32 4.32 -1.64 5.64 -3 7 C-3.99 6.67 -4.98 6.34 -6 6 C-4 3 -4 3 -1 2 C-0.67 1.34 -0.34 0.68 0 0 Z " fill="#40A788" transform="translate(324,239)"/>
<path d="M0 0 C0.66 0.33 1.32 0.66 2 1 C0.35 2.98 -1.3 4.96 -3 7 C-3.99 6.67 -4.98 6.34 -6 6 C-4.02 4.02 -2.04 2.04 0 0 Z " fill="#DBF9F1" transform="translate(355,135)"/>
<path d="M0 0 C0.144375 0.61875 0.28875 1.2375 0.4375 1.875 C0.93152225 4.03258322 0.93152225 4.03258322 2 6 C0.02 6.33 -1.96 6.66 -4 7 C-2.68 4.69 -1.36 2.38 0 0 Z " fill="#7BD2B4" transform="translate(60,79)"/>
<path d="M0 0 C1.48206495 0.254496 2.96068615 0.52911762 4.4375 0.8125 C5.67306641 1.03873047 5.67306641 1.03873047 6.93359375 1.26953125 C7.95646484 1.63111328 7.95646484 1.63111328 9 2 C9.33 2.99 9.66 3.98 10 5 C8.51800098 4.55090939 7.03944764 4.09043436 5.5625 3.625 C4.73878906 3.36976563 3.91507812 3.11453125 3.06640625 2.8515625 C1 2 1 2 0 0 Z " fill="#0A8260" transform="translate(78,434)"/>
<path d="M0 0 C-0.33 1.98 -0.66 3.96 -1 6 C-2.65 4.35 -4.3 2.7 -6 1 C-3.92446352 0.4465236 -2.15634036 0 0 0 Z " fill="#41A787" transform="translate(182,244)"/>
<path d="M0 0 C1.9375 0.8125 1.9375 0.8125 4 2 C4.33 2.99 4.66 3.98 5 5 C4.01 5 3.02 5 2 5 C1.34 4.34 0.68 3.68 0 3 C-0.66 2.67 -1.32 2.34 -2 2 C-1.34 1.34 -0.68 0.68 0 0 Z " fill="#C7F0E7" transform="translate(162,232)"/>
</svg>
