<?xml version="1.0" encoding="UTF-8"?>
<svg version="1.1" xmlns="http://www.w3.org/2000/svg" width="500" height="500">
<path d="M0 0 C1.21007025 -0.00453111 2.42014049 -0.00906223 3.66687953 -0.01373065 C6.99973572 -0.02414644 10.33237487 -0.02570988 13.6652317 -0.02334189 C17.27004644 -0.02293165 20.87482968 -0.03399266 24.47962952 -0.04345703 C31.53289241 -0.0600239 38.58612186 -0.06556464 45.63940258 -0.06668179 C51.37749467 -0.06763442 57.11557579 -0.07175543 62.8536644 -0.07808304 C79.14878381 -0.09568454 95.44387695 -0.10492375 111.73900594 -0.10342209 C113.05492606 -0.10330222 113.05492606 -0.10330222 114.39743042 -0.10317993 C115.71497133 -0.10305729 115.71497133 -0.10305729 117.05912922 -0.10293217 C131.28378798 -0.10211983 145.50834071 -0.12124727 159.73296882 -0.14945666 C174.36477076 -0.17824281 188.99652109 -0.19199378 203.62835205 -0.19026911 C211.83249192 -0.18960713 220.03652067 -0.19501466 228.24063492 -0.21662521 C235.22760262 -0.23491273 242.21440884 -0.23912273 249.20139022 -0.22560637 C252.7599232 -0.2191143 256.31814705 -0.21882136 259.87664986 -0.23631287 C284.32981701 -0.348887 304.17526773 1.48595652 322.62985229 19.26742554 C335.38791866 33.96789647 339.78600274 49.66920185 339.77029419 68.69593811 C339.77475087 70.39527401 339.77475087 70.39527401 339.77929759 72.12893993 C339.78795183 75.91558786 339.78949006 79.70220406 339.79098511 83.48886108 C339.79508046 86.20783167 339.80062032 88.92679897 339.80603027 91.64576721 C339.81957571 99.02609463 339.82563221 106.40641659 339.83004093 113.78675437 C339.83280942 118.4001176 339.83704783 123.01347876 339.8415451 127.62684059 C339.85373214 140.41489753 339.86403301 153.20295282 339.8674202 165.99101543 C339.86763976 166.80846009 339.86785933 167.62590474 339.86808555 168.46812044 C339.86830383 169.28745021 339.8685221 170.10677998 339.868747 170.95093793 C339.86919045 172.61103992 339.86963702 174.27114191 339.87008667 175.9312439 C339.8703081 176.75470076 339.87052953 177.57815761 339.87075767 178.42656771 C339.87470423 191.76421263 339.89215647 205.10180287 339.91544619 218.43942668 C339.93919702 232.15244537 339.95162372 245.86543667 339.95278811 259.57847625 C339.95370271 267.27001128 339.95940056 274.96147502 339.97760773 282.65299034 C339.99305909 289.20309147 339.99809957 295.75309926 339.98986962 302.30321517 C339.98598098 305.64060805 339.98845928 308.97766148 340.00092697 312.31505585 C340.01368779 315.94486152 340.00774678 319.57419174 339.99734497 323.20399475 C340.00540138 324.24235448 340.01345778 325.28071421 340.02175832 326.35053939 C339.9530948 336.65900012 338.02968567 346.55816377 333.19235229 355.70492554 C332.61614136 356.81738647 332.03993042 357.92984741 331.44625854 359.07601929 C329.62288338 362.27966984 327.81155145 365.29726838 325.62985229 368.26742554 C324.96985229 368.26742554 324.30985229 368.26742554 323.62985229 368.26742554 C323.38235229 368.88617554 323.13485229 369.50492554 322.87985229 370.14242554 C321.4235659 372.61811241 320.25172723 373.21867556 317.62985229 374.26742554 C317.62985229 374.92742554 317.62985229 375.58742554 317.62985229 376.26742554 C315.97985229 376.92742554 314.32985229 377.58742554 312.62985229 378.26742554 C312.62985229 378.92742554 312.62985229 379.58742554 312.62985229 380.26742554 C305.44930325 384.0797789 298.52500441 387.2793347 290.62985229 389.26742554 C289.73179902 389.52765759 289.73179902 389.52765759 288.81560326 389.79314685 C286.31997719 390.33466429 284.0559371 390.39531658 281.50158691 390.3988533 C280.45948783 390.40269445 279.41738874 390.40653559 278.3437109 390.41049314 C277.20015416 390.40962665 276.05659742 390.40876017 274.87838745 390.40786743 C273.66245439 390.41083855 272.44652132 390.41380968 271.1937418 390.41687083 C267.81686038 390.4240517 264.44002984 390.4267302 261.06314445 390.4274683 C257.42150029 390.42931958 253.77986715 390.43686746 250.13822937 390.44360352 C242.17304002 390.45718627 234.20785571 390.4632119 226.24265671 390.46761417 C221.2668319 390.47037756 216.29100904 390.47461517 211.31518555 390.47911835 C197.53305686 390.49131257 183.75092974 390.50161052 169.96879578 390.50499344 C168.64556097 390.50532279 168.64556097 390.50532279 167.29559416 390.50565879 C166.41134262 390.50587707 165.52709108 390.50609535 164.61604404 390.50632024 C162.82426008 390.5067637 161.03247611 390.50721026 159.24069214 390.50765991 C158.35190805 390.50788134 157.46312397 390.50810277 156.54740703 390.50833091 C142.15802352 390.51227573 127.76869075 390.52971941 113.37932682 390.55301943 C98.59857802 390.57675948 83.81785465 390.58919655 69.03708649 390.59036136 C60.74134051 390.5912768 52.4456606 390.59699585 44.14993286 390.61518097 C37.08294713 390.63061802 30.01604786 390.63568135 22.94904846 390.62744287 C19.34654485 390.62354863 15.74421514 390.62440538 12.14173317 390.63850021 C8.22681018 390.65367657 4.31212899 390.64533598 0.39718628 390.63491821 C-1.29138017 390.64700282 -1.29138017 390.64700282 -3.01405907 390.65933156 C-13.27986418 390.59568854 -22.6344204 388.59766045 -31.74514771 383.82992554 C-32.86663208 383.2537146 -33.98811646 382.67750366 -35.14358521 382.08383179 C-38.3697499 380.26764948 -41.38898092 378.46051953 -44.37014771 376.26742554 C-44.37014771 375.60742554 -44.37014771 374.94742554 -44.37014771 374.26742554 C-44.98889771 374.01992554 -45.60764771 373.77242554 -46.24514771 373.51742554 C-48.72083457 372.06113914 -49.32139773 370.88930048 -50.37014771 368.26742554 C-51.03014771 368.26742554 -51.69014771 368.26742554 -52.37014771 368.26742554 C-62.38896825 354.95323135 -66.52405483 340.52451394 -66.5105896 324.00349426 C-66.51356072 322.86414541 -66.51653184 321.72479655 -66.519593 320.55092198 C-66.52826943 316.73042289 -66.52978737 312.90995518 -66.53128052 309.08944702 C-66.53537284 306.35106726 -66.54091385 303.61269078 -66.54632568 300.87431335 C-66.55988927 293.431886 -66.56593085 285.98946405 -66.57033634 278.5470264 C-66.57310251 273.89581676 -66.57734059 269.24460919 -66.58184052 264.59340096 C-66.59403138 251.70420048 -66.60433055 238.81500167 -66.60771561 225.92579556 C-66.60793517 225.10134544 -66.60815474 224.27689532 -66.60838096 223.42746187 C-66.60859924 222.601086 -66.60881751 221.77471014 -66.60904241 220.92329258 C-66.60948587 219.24885968 -66.60993243 217.57442679 -66.61038208 215.8999939 C-66.61060351 215.06942481 -66.61082494 214.23885571 -66.61105308 213.38311786 C-66.61499816 199.93541503 -66.63244415 186.48776647 -66.6557416 173.04008459 C-66.67949234 159.21864804 -66.69191918 145.39723868 -66.69308352 131.5757814 C-66.69399828 123.82161855 -66.69969995 116.06752641 -66.71790314 108.3133831 C-66.73335456 101.708337 -66.73839506 95.10338347 -66.73016503 88.49832272 C-66.72627602 85.13259096 -66.72875599 81.76719581 -66.74122238 78.40146255 C-66.75398158 74.74089773 -66.74804299 71.08080448 -66.73764038 67.42024231 C-66.74569679 66.37273644 -66.75375319 65.32523058 -66.76205373 64.24598211 C-66.65954951 48.72945994 -61.6650496 31.52735869 -50.37014771 20.26742554 C-49.71014771 20.26742554 -49.05014771 20.26742554 -48.37014771 20.26742554 C-48.37014771 19.60742554 -48.37014771 18.94742554 -48.37014771 18.26742554 C-47.71014771 18.26742554 -47.05014771 18.26742554 -46.37014771 18.26742554 C-46.37014771 17.60742554 -46.37014771 16.94742554 -46.37014771 16.26742554 C-44.46453922 14.72536716 -42.5795618 13.33005288 -40.55764771 11.95492554 C-39.96814331 11.55265747 -39.37863892 11.1503894 -38.77127075 10.7359314 C-26.3572166 2.45599938 -14.78229213 -0.04104073 0 0 Z " fill="#DC4941" transform="translate(113.37014770507813,54.732574462890625)"/>
<path d="M0 0 C2.61062399 1.07663981 4.05075571 2.46621804 6.03819275 4.47344971 C7.18474586 5.62034271 7.18474586 5.62034271 8.35446167 6.79040527 C9.17120865 7.62263611 9.98795563 8.45486694 10.82945251 9.31231689 C11.67758011 10.16468933 12.5257077 11.01706177 13.39953613 11.89526367 C16.11375643 14.62628724 18.81738889 17.36752995 21.52085876 20.10919189 C23.33852697 21.9419089 25.15687848 23.77394847 26.97593689 25.60528564 C30.32126477 28.97512205 33.66263853 32.34877093 36.99913025 35.72735596 C40.01654571 38.78213788 43.04306156 41.82715305 46.08335876 44.85919189 C47.28247924 46.05802062 48.48143772 47.25701139 49.68028259 48.45611572 C50.34058975 49.11642288 51.00089691 49.77673004 51.68121338 50.45704651 C65.38228607 64.1581192 65.38228607 64.1581192 79.08335876 77.85919189 C82.40612067 76.28594048 84.55582141 74.59949709 87.12242126 71.94512939 C87.86749939 71.18458252 88.61257751 70.42403564 89.38023376 69.64044189 C90.14851501 68.84637939 90.91679626 68.05231689 91.70835876 67.23419189 C93.23757604 65.65417005 94.7712051 64.07840215 96.30992126 62.50762939 C97.32433289 61.45841309 97.32433289 61.45841309 98.35923767 60.38800049 C100.08335876 58.85919189 100.08335876 58.85919189 102.08335876 58.85919189 C102.30585297 58.31301712 102.52834717 57.76684235 102.75758362 57.20411682 C104.49489611 54.1312976 106.82154598 51.81789193 109.29576111 49.34039307 C109.82607437 48.80175629 110.35638763 48.26311951 110.902771 47.7081604 C112.65285379 45.93403094 114.4104592 44.1676091 116.16929626 42.40216064 C117.39004592 41.17244485 118.61071744 39.94265149 119.83131409 38.71278381 C122.38817479 36.13944808 124.94938385 33.57052588 127.51304626 31.00396729 C130.80262774 27.7089852 134.07572709 24.39812958 137.34512901 21.08314037 C139.85882787 18.53976388 142.38364137 16.00765074 144.91171646 13.47857094 C146.1239012 12.26217006 147.33194913 11.04163248 148.5357933 9.81697655 C150.21637841 8.10965406 151.91190951 6.418718 153.61216736 4.73101807 C154.3573185 3.96361549 154.3573185 3.96361549 155.11752319 3.18070984 C156.52778625 1.80003357 156.52778625 1.80003357 159.08335876 -0.14080811 C162.68730089 0.02359454 164.3385351 1.75882477 166.79820251 4.28106689 C167.82784119 5.32520752 167.82784119 5.32520752 168.87828064 6.39044189 C169.58533142 7.12262939 170.2923822 7.85481689 171.02085876 8.60919189 C172.07563416 9.68427002 172.07563416 9.68427002 173.15171814 10.78106689 C174.52450841 12.18087553 175.89469593 13.58324218 177.2620697 14.98834229 C180.59482676 18.41178965 183.98010826 21.76739833 187.45054626 25.05059814 C188.61997026 26.17413667 189.78923904 27.29783676 190.95835876 28.42169189 C191.86714783 29.26763916 191.86714783 29.26763916 192.79429626 30.13067627 C194.51304626 31.80059814 194.51304626 31.80059814 197.08335876 34.85919189 C196.66282611 38.43935719 195.41712981 39.76494466 192.64585876 41.98419189 C187.47340016 46.30077606 182.80860903 51.06456601 178.08335876 55.85919189 C175.83457632 58.114758 173.58453383 60.36795202 171.30992126 62.59747314 C168.21471001 65.63983932 165.27947925 68.7472075 162.45835876 72.04669189 C159.87680122 75.04703544 157.17625255 77.38487687 154.08335876 79.85919189 C152.91919429 81.15546014 151.77504183 82.46984002 150.64585876 83.79669189 C148.52625633 86.28492083 146.45092518 88.50780051 143.89585876 90.54669189 C141.06011648 92.71372305 141.06011648 92.71372305 139.14585876 95.29669189 C137.41216821 97.45067107 135.87958241 98.93785245 133.77085876 100.67169189 C130.35866946 103.50541992 127.53081743 106.6498486 124.66148376 110.02325439 C122.89890345 112.07378099 121.03364804 113.98691419 119.08335876 115.85919189 C120.42275468 118.84251629 121.89079636 120.90811581 124.21585083 123.19854736 C124.85952103 123.83774109 125.50319122 124.47693481 126.16636658 125.13549805 C126.8714032 125.82548889 127.57643982 126.51547974 128.30284119 127.22637939 C129.04601089 127.96180969 129.7891806 128.69723999 130.55487061 129.45495605 C132.16790575 131.0503432 133.78313031 132.64351906 135.40027428 134.23474121 C137.95568454 136.75078926 140.50355011 139.27424509 143.04925537 141.80010986 C150.28756652 148.98030965 157.53544107 156.15073958 164.79795837 163.30645752 C169.23933006 167.68356576 173.66857504 172.07263465 178.09028053 176.46960449 C179.78063983 178.14566027 181.47566736 179.8170211 183.17532921 181.48364258 C185.54568123 183.80853493 187.90038639 186.14824224 190.25205994 188.49200439 C191.31872391 189.52699066 191.31872391 189.52699066 192.40693665 190.58288574 C193.04214737 191.22207947 193.67735809 191.86127319 194.33181763 192.51983643 C194.89059192 193.07140411 195.44936621 193.6229718 196.02507305 194.19125366 C197.08335876 195.85919189 197.08335876 195.85919189 196.84926319 197.9526825 C195.86737813 200.39681655 194.54555125 201.73671029 192.66148376 203.57403564 C191.96539001 204.26046143 191.26929626 204.94688721 190.55210876 205.65411377 C189.81992126 206.36116455 189.08773376 207.06821533 188.33335876 207.79669189 C187.61664001 208.49987549 186.89992126 209.20305908 186.16148376 209.92755127 C184.76167513 211.30034154 183.35930848 212.67052906 181.95420837 214.03790283 C178.53076101 217.37065989 175.17515233 220.75594139 171.89195251 224.22637939 C170.76841399 225.39580339 169.6447139 226.56507217 168.52085876 227.73419189 C167.6749115 228.64298096 167.6749115 228.64298096 166.81187439 229.57012939 C165.14195251 231.28887939 165.14195251 231.28887939 162.08335876 233.85919189 C158.70086536 233.60420782 157.01573024 232.16378088 154.67912292 229.8157196 C154.02573441 229.16645508 153.37234589 228.51719055 152.69915771 227.84825134 C151.99353195 227.13183975 151.28790619 226.41542816 150.56089783 225.67730713 C149.80928879 224.92613617 149.05767975 224.17496521 148.28329468 223.40103149 C145.79801531 220.91366029 143.32353357 218.41582759 140.84898376 215.91778564 C139.12899601 214.19220337 137.40834519 212.46728178 135.6870575 210.74299622 C131.15619145 206.20067016 126.6344061 201.64940723 122.11442566 197.09625244 C117.50142665 192.45257772 112.87993436 187.81737307 108.25914001 183.18145752 C99.19219379 174.08232671 90.13452256 164.97402067 81.08335876 155.85919189 C76.10024766 158.19974408 72.15491697 161.25185458 69.08335876 165.85919189 C68.42335876 165.85919189 67.76335876 165.85919189 67.08335876 165.85919189 C66.81523376 166.45731689 66.54710876 167.05544189 66.27085876 167.67169189 C65.0841847 169.85767043 63.98736764 171.27251783 62.08335876 172.85919189 C61.42335876 172.85919189 60.76335876 172.85919189 60.08335876 172.85919189 C59.83585876 173.47794189 59.58835876 174.09669189 59.33335876 174.73419189 C57.87707237 177.20987876 56.7052337 177.81044192 54.08335876 178.85919189 C54.08335876 179.51919189 54.08335876 180.17919189 54.08335876 180.85919189 C53.42335876 180.85919189 52.76335876 180.85919189 52.08335876 180.85919189 C51.85648376 181.43669189 51.62960876 182.01419189 51.39585876 182.60919189 C49.73609531 185.45450067 47.66269209 186.79572523 45.08335876 188.85919189 C43.95912167 190.11230495 42.85664032 191.38511512 41.77085876 192.67169189 C38.7704366 196.19392661 35.54108653 199.14056791 32.00914001 202.11700439 C29.49409925 204.39227453 27.40372471 206.91291674 25.30992126 209.57403564 C24.90515564 209.99813721 24.50039001 210.42223877 24.08335876 210.85919189 C23.42335876 210.85919189 22.76335876 210.85919189 22.08335876 210.85919189 C21.87324158 211.39673096 21.66312439 211.93427002 21.44664001 212.48809814 C19.56395081 215.76257478 16.96122512 218.19090779 14.27085876 220.79669189 C13.74943298 221.30909424 13.2280072 221.82149658 12.69078064 222.34942627 C11.65633262 223.36579405 10.62014455 224.38039416 9.58213806 225.39312744 C6.80678128 228.10790468 4.0415369 230.8300376 1.39585876 233.67169189 C0.08335876 234.85919189 0.08335876 234.85919189 -1.91664124 234.85919189 C-3.36195374 233.39044189 -3.36195374 233.39044189 -5.04164124 231.35919189 C-11.1857569 223.66544354 -11.1857569 223.66544354 -18.91664124 217.85919189 C-18.91664124 217.19919189 -18.91664124 216.53919189 -18.91664124 215.85919189 C-19.57664124 215.85919189 -20.23664124 215.85919189 -20.91664124 215.85919189 C-22.32679749 214.42559814 -22.32679749 214.42559814 -23.97914124 212.42169189 C-27.47151626 208.26480576 -31.28766013 204.59885225 -35.29164124 200.93731689 C-36.91664124 198.85919189 -36.91664124 198.85919189 -36.70842075 196.94207382 C-35.78571976 194.51478544 -34.71066446 193.28348817 -32.87316895 191.45495605 C-32.22390442 190.80156754 -31.57463989 190.14817902 -30.90570068 189.47499084 C-30.18928909 188.76936508 -29.4728775 188.06373932 -28.73475647 187.33673096 C-27.98358551 186.58512192 -27.23241455 185.83351288 -26.45848083 185.05912781 C-23.97110963 182.57384844 -21.47327694 180.0993667 -18.97523499 177.62481689 C-17.24965271 175.90482914 -15.52473112 174.18417832 -13.80044556 172.46289062 C-9.2581195 167.93202458 -4.70685658 163.41023923 -0.15370178 158.89025879 C4.48997294 154.27725978 9.12517759 149.65576749 13.76109314 145.03497314 C22.86022395 135.96802692 31.96852999 126.91035569 41.08335876 117.85919189 C39.73741053 114.85937008 38.2490325 112.77953616 35.91963196 110.46841431 C35.26899277 109.81791611 34.61835358 109.16741791 33.94799805 108.49720764 C33.23518173 107.79472397 32.52236542 107.0922403 31.78794861 106.36846924 C31.03663162 105.62007278 30.28531464 104.87167633 29.51123047 104.1006012 C27.88030252 102.47728144 26.24706822 100.8562763 24.61181259 99.23731613 C22.02776495 96.67876117 19.44998704 94.11403942 16.87379456 91.5475769 C11.4075337 86.10418462 5.93349566 80.66865437 0.45835876 75.23419189 C-5.89149942 68.93144051 -12.23817856 62.625558 -18.57650375 56.31120682 C-21.12299977 53.77773006 -23.67541932 51.2503231 -26.22807312 48.72305298 C-27.77901527 47.17937162 -29.32967971 45.63541117 -30.88002014 44.09112549 C-31.59688492 43.38459335 -32.31374969 42.67806122 -33.05233765 41.95011902 C-33.69733719 41.30526047 -34.34233673 40.66040192 -35.00688171 39.9960022 C-35.57210855 39.43521658 -36.1373354 38.87443096 -36.71969032 38.29665184 C-37.91664124 36.85919189 -37.91664124 36.85919189 -37.91664124 34.85919189 C-36.41273499 33.41387939 -36.41273499 33.41387939 -34.35414124 31.73419189 C-30.68399441 28.62818424 -27.61027434 25.30023887 -24.50648499 21.64044189 C-22.51736092 19.41184098 -20.28746696 17.66850626 -17.91664124 15.85919189 C-15.26810941 13.27361329 -12.69304736 10.62990305 -10.16273499 7.92950439 C-9.22660056 6.94767303 -8.29040229 5.96590252 -7.35414124 4.98419189 C-6.88556702 4.47372314 -6.4169928 3.96325439 -5.93421936 3.43731689 C-2.43983828 -0.17924534 -2.43983828 -0.17924534 0 0 Z " fill="#FCFBFB" transform="translate(169.91664123535156,133.14080810546875)"/>
<path d="M0 0 C1.2213593 -0.00170885 2.4427186 -0.0034177 3.70108879 -0.00517833 C7.06485102 -0.00788853 10.42837695 -0.00169351 13.79211044 0.00837779 C17.42932355 0.01705731 21.06653005 0.01408896 24.70375061 0.01257324 C30.99674309 0.01152723 37.28969393 0.01777412 43.58267593 0.02904892 C52.68113799 0.04533949 61.77958002 0.05051556 70.87805508 0.0530249 C85.641605 0.05739643 100.40513276 0.07069081 115.16867065 0.08963013 C129.50558359 0.10800297 143.8424905 0.1221526 158.17941284 0.13064575 C159.50617852 0.13143392 159.50617852 0.13143392 160.85974754 0.13223802 C165.29731032 0.13484819 169.73487315 0.13737558 174.172436 0.13986182 C210.95570174 0.16057744 247.73894228 0.19578818 284.52218628 0.24050903 C281.27115801 2.40786121 280.40590482 2.48846567 276.65473175 2.47822475 C275.64535758 2.48035675 274.6359834 2.48248875 273.59602213 2.48468536 C272.48388896 2.47681332 271.3717558 2.46894128 270.22592163 2.46083069 C269.0468894 2.46042284 267.86785716 2.46001499 266.65309668 2.45959479 C263.37458422 2.45650259 260.09624352 2.44442123 256.81777191 2.42866313 C253.28385127 2.41388273 249.74991895 2.41069365 246.2159729 2.40623474 C240.08875446 2.39704004 233.96158663 2.38085006 227.83439636 2.36027336 C218.96348924 2.33075728 210.0925979 2.31511623 201.22165126 2.30346126 C186.81400208 2.28443458 172.40637465 2.25868045 157.99874878 2.22659302 C157.13605241 2.22467508 156.27335605 2.22275715 155.38451737 2.2207811 C145.76821177 2.19925295 136.15191122 2.17609195 126.53561401 2.15109253 C123.05327357 2.14206168 119.57093308 2.13304498 116.08859253 2.12405396 C115.22937142 2.1218323 114.37015031 2.11961064 113.48489219 2.11732166 C99.14150743 2.08055822 84.79812855 2.05550744 70.45470572 2.03958422 C61.61091635 2.02926513 52.76726188 2.00889008 43.92352909 1.97546662 C37.85665973 1.95327522 31.78983139 1.94194215 25.72292238 1.9390313 C22.22584681 1.93698898 18.72896268 1.9300687 15.23194122 1.90980911 C11.43260544 1.89034322 7.63369396 1.8895299 3.83432007 1.89320374 C2.74003268 1.88310097 1.64574529 1.87299821 0.51829767 1.8625893 C-11.45976099 1.90631934 -11.45976099 1.90631934 -21.65261984 7.32582229 C-22.25493382 7.95766892 -22.8572478 8.58951554 -23.47781372 9.24050903 C-25.66140747 9.60379028 -25.66140747 9.60379028 -27.91531372 9.55300903 C-31.38863272 9.7300574 -31.38863272 9.7300574 -33.99734497 11.84988403 C-34.80152719 13.12636374 -35.58641689 14.41525834 -36.34890747 15.71707153 C-37.47781372 17.24050903 -37.47781372 17.24050903 -40.29031372 17.67800903 C-41.01218872 17.53363403 -41.73406372 17.38925903 -42.47781372 17.24050903 C-42.47781372 18.23050903 -42.47781372 19.22050903 -42.47781372 20.24050903 C-44.12781372 20.57050903 -45.77781372 20.90050903 -47.47781372 21.24050903 C-47.58093872 22.00363403 -47.68406372 22.76675903 -47.79031372 23.55300903 C-48.52145411 26.41110327 -49.24733285 27.39793788 -51.47781372 29.24050903 C-51.14781372 29.90050903 -50.81781372 30.56050903 -50.47781372 31.24050903 C-50.80781372 31.90050903 -51.13781372 32.56050903 -51.47781372 33.24050903 C-52.07593872 33.32300903 -52.67406372 33.40550903 -53.29031372 33.49050903 C-56.65021657 34.64247572 -57.62162826 37.33248514 -59.47781372 40.24050903 C-60.13781372 40.24050903 -60.79781372 40.24050903 -61.47781372 40.24050903 C-60.09131518 33.14096832 -55.45978974 25.40041276 -50.47781372 20.24050903 C-49.81781372 20.24050903 -49.15781372 20.24050903 -48.47781372 20.24050903 C-48.47781372 19.58050903 -48.47781372 18.92050903 -48.47781372 18.24050903 C-47.81781372 18.24050903 -47.15781372 18.24050903 -46.47781372 18.24050903 C-46.47781372 17.58050903 -46.47781372 16.92050903 -46.47781372 16.24050903 C-44.57220524 14.69845066 -42.68722782 13.30313638 -40.66531372 11.92800903 C-40.07580933 11.52574097 -39.48630493 11.1234729 -38.87893677 10.70901489 C-26.42095669 2.39978514 -14.83394516 -0.07671473 0 0 Z " fill="#DD9C99" transform="translate(113.47781372070313,54.759490966796875)"/>
<path d="M0 0 C0 0.66 0 1.32 0 2 C1.23203596 1.99907821 2.46407192 1.99815641 3.73344231 1.99720669 C33.23160565 1.97536941 62.72976709 1.95897111 92.22793656 1.94893467 C95.88877413 1.94768453 99.54961168 1.94639015 103.21044922 1.94506836 C103.93900616 1.94480605 104.6675631 1.94454374 105.41819753 1.94427348 C117.08883485 1.93996702 128.75946706 1.93210835 140.43010138 1.9228472 C152.47853472 1.91336872 164.52696546 1.90791503 176.57540238 1.90591151 C183.31190964 1.90468341 190.04840411 1.90169688 196.78490829 1.89426994 C230.53647911 1.85847021 264.25819293 2.16605831 298 3 C298 3.33 298 3.66 298 4 C199 4 100 4 -2 4 C-2 3.34 -2 2.68 -2 2 C-2.66 1.67 -3.32 1.34 -4 1 C-2 0 -2 0 0 0 Z " fill="#B72A27" transform="translate(101,440)"/>
<path d="M0 0 C0.495 1.485 0.495 1.485 1 3 C0.21625 3.391875 -0.5675 3.78375 -1.375 4.1875 C-4.35156418 6.24274669 -4.98823563 7.59679258 -6 11 C-5.34 11 -4.68 11 -4 11 C-4.33 11.66 -4.66 12.32 -5 13 C-5.61875 14.7634375 -5.61875 14.7634375 -6.25 16.5625 C-7.11625 18.2640625 -7.11625 18.2640625 -8 20 C-10.5 20.75 -10.5 20.75 -13 21 C-14.79385992 22.4579186 -14.79385992 22.4579186 -16 24 C-16.495 23.01 -16.495 23.01 -17 22 C-17.99 22.33 -18.98 22.66 -20 23 C-19.9175 23.928125 -19.835 24.85625 -19.75 25.8125 C-20 29 -20 29 -21.9375 30.875 C-24 32 -24 32 -25 32 C-25.969375 32.66 -26.93875 33.32 -27.9375 34 C-31 36 -31 36 -33 36 C-33.433125 36.928125 -33.433125 36.928125 -33.875 37.875 C-35 40 -35 40 -37 42 C-37.99 42 -38.98 42 -40 42 C-40.1546875 42.9590625 -40.1546875 42.9590625 -40.3125 43.9375 C-40.539375 44.618125 -40.76625 45.29875 -41 46 C-42.485 46.495 -42.485 46.495 -44 47 C-44.309375 47.639375 -44.61875 48.27875 -44.9375 48.9375 C-46.24676963 51.4790234 -47.45467308 51.85049752 -50 53 C-50.33 53.66 -50.66 54.32 -51 55 C-53.5625 55.625 -53.5625 55.625 -56 56 C-55.34 55.01 -54.68 54.02 -54 53 C-53.34 53 -52.68 53 -52 53 C-51.67 52.01 -51.34 51.02 -51 50 C-46.68181818 45.22727273 -46.68181818 45.22727273 -43 44 C-42.71125 43.401875 -42.4225 42.80375 -42.125 42.1875 C-40.63286323 39.28612296 -38.55354297 38.04283438 -36 36 C-34.22799727 34.06729058 -32.53205629 32.07879627 -30.828125 30.0859375 C-28.03713998 26.90135203 -25.02235589 23.96244135 -22 21 C-19.08921068 18.09940609 -16.19231471 15.18538463 -13.30078125 12.265625 C-11.97139924 10.92703857 -10.64197129 9.58849776 -9.3125 8.25 C-8.63638672 7.56550781 -7.96027344 6.88101563 -7.26367188 6.17578125 C-6.61591797 5.52480469 -5.96816406 4.87382812 -5.30078125 4.203125 C-4.71466064 3.61176758 -4.12854004 3.02041016 -3.5246582 2.41113281 C-2 1 -2 1 0 0 Z " fill="#DF5D55" transform="translate(366,171)"/>
<path d="M0 0 C0.433125 0.9590625 0.433125 0.9590625 0.875 1.9375 C1.82823451 4.15206079 1.82823451 4.15206079 4 5 C3.58934946 8.38786692 2.83643168 10.25937862 0.98556137 13.19439793 C-1.23229025 17.00802582 -1.56756541 20.47273113 -1.51898193 24.82713318 C-1.52648319 25.58448779 -1.53398444 26.3418424 -1.541713 27.12214714 C-1.56190819 29.64348245 -1.55390395 32.16391145 -1.54589844 34.68530273 C-1.55463792 36.49912908 -1.56512501 38.31294772 -1.57722473 40.12675476 C-1.60505936 45.03946819 -1.60848997 49.95192974 -1.60750484 54.86471057 C-1.61063611 60.0030497 -1.63625881 65.14127576 -1.65948486 70.27955627 C-1.70003193 80.00454628 -1.72038256 89.72946926 -1.73345876 99.45453078 C-1.74933315 110.52830312 -1.78775067 121.60196146 -1.82805204 132.67566764 C-1.91043333 155.45040683 -1.96453654 178.22514285 -2 201 C-2.33 201 -2.66 201 -3 201 C-3.07011446 176.12176648 -3.12300016 151.24354779 -3.15543652 126.36523533 C-3.1708983 114.81352496 -3.19197473 103.26187602 -3.22631836 91.71020508 C-3.25624171 81.64051091 -3.27558001 71.57086124 -3.28226548 61.50112385 C-3.28617274 56.17042242 -3.29534117 50.83984829 -3.31719017 45.5091877 C-3.33760162 40.48842663 -3.34382436 35.4678449 -3.33932304 30.44704628 C-3.34014616 28.60766372 -3.34608396 26.76827496 -3.35761642 24.92892838 C-3.45970442 7.80181928 -3.45970442 7.80181928 0 0 Z " fill="#C9524D" transform="translate(51,95)"/>
<path d="M0 0 C3.54308324 3.14507169 5.5889411 6.60074099 7.625 10.8125 C7.9240625 11.40353516 8.223125 11.99457031 8.53125 12.60351562 C11.677775 18.98706302 13.25168973 24.79948733 13.24050903 31.91600037 C13.24221788 32.57534972 13.24392673 33.23469907 13.24568737 33.9140287 C13.24895801 36.10352549 13.23801917 38.29270962 13.22705078 40.48217773 C13.22648614 42.05954481 13.22680426 43.63691241 13.22793579 45.21427917 C13.22850824 49.48236998 13.21677137 53.75034775 13.20278788 58.01841235 C13.19026257 62.48403518 13.1891086 66.94966077 13.18673706 71.41529846 C13.18052758 79.86534006 13.16412396 88.31532973 13.14403808 96.76534849 C13.12166252 106.38805321 13.11068148 116.01076045 13.10064721 125.63348472 C13.07975727 145.42235209 13.04459163 165.21117277 13 185 C12.67 185 12.34 185 12 185 C11.84537757 167.69184273 11.69737125 150.38364282 11.5570364 133.07536411 C11.49171173 125.03711078 11.42429964 116.9988855 11.35180664 108.96069336 C11.28855694 101.94681175 11.22939368 94.932909 11.17494446 87.91895336 C11.14603157 84.21222266 11.11520385 80.50553225 11.07946587 76.79886055 C10.79612108 47.15552378 10.79612108 47.15552378 12 33 C11.01 32.67 10.02 32.34 9 32 C9.66 31.67 10.32 31.34 11 31 C10.835 30.505 10.67 30.01 10.5 29.5 C9.79311182 25.96555911 9.93994845 22.60309299 10 19 C9.34 19 8.68 19 8 19 C7.67 18.34 7.34 17.68 7 17 C6.34 17 5.68 17 5 17 C5.0515625 16.28199219 5.103125 15.56398438 5.15625 14.82421875 C4.97468886 11.54250121 4.06388716 9.68397059 2.5 6.8125 C0 2.18055556 0 2.18055556 0 0 Z " fill="#D15851" transform="translate(439,79)"/>
<path d="M0 0 C-0.33 0.66 -0.66 1.32 -1 2 C-1.763125 2.12375 -2.52625 2.2475 -3.3125 2.375 C-6.12858407 2.75424085 -6.12858407 2.75424085 -7.75 5 C-10.37093248 7.32971776 -11.06746632 7.20666423 -14.4375 7.3125 C-17.910819 7.48954837 -17.910819 7.48954837 -20.51953125 9.609375 C-21.32371347 10.88585471 -22.10860317 12.17474931 -22.87109375 13.4765625 C-24 15 -24 15 -26.8125 15.4375 C-27.534375 15.293125 -28.25625 15.14875 -29 15 C-29 15.99 -29 16.98 -29 18 C-30.65 18.33 -32.3 18.66 -34 19 C-34.103125 19.763125 -34.20625 20.52625 -34.3125 21.3125 C-35.04364039 24.17059424 -35.76951913 25.15742885 -38 27 C-37.67 27.66 -37.34 28.32 -37 29 C-37.33 29.66 -37.66 30.32 -38 31 C-38.8971875 31.12375 -38.8971875 31.12375 -39.8125 31.25 C-43.17240285 32.40196669 -44.14381454 35.09197611 -46 38 C-46.66 38 -47.32 38 -48 38 C-46.61350146 30.90045929 -41.98197602 23.15990373 -37 18 C-36.34 18 -35.68 18 -35 18 C-35 17.34 -35 16.68 -35 16 C-34.34 16 -33.68 16 -33 16 C-33 15.34 -33 14.68 -33 14 C-31.09437951 12.4579319 -29.20960414 11.06238404 -27.1875 9.6875 C-26.5987207 9.28668213 -26.00994141 8.88586426 -25.40332031 8.47290039 C-17.16057515 2.98550475 -10.09976737 -0.82784978 0 0 Z " fill="#E77F77" transform="translate(100,57)"/>
<path d="M0 0 C14.26209982 2.30621189 26.95296196 8.3535648 37 19 C38.1875 21.17578125 38.1875 21.17578125 39 23 C37.35 22.67 35.7 22.34 34 22 C34.495 20.515 34.495 20.515 35 19 C34.01 19 33.02 19 32 19 C32 18.34 32 17.68 32 17 C28.09469779 15.10313893 26.16502841 15.08572547 22 16 C18.6875 15.5625 18.6875 15.5625 16 15 C16 12.69 16 10.38 16 8 C12.98968256 7.06576355 12.13349732 6.95550089 9 8 C5.89050732 7.74087561 3.70329151 7.49230406 1.125 5.6875 C0 4 0 4 0 0 Z " fill="#E96F66" transform="translate(400,56)"/>
<path d="M0 0 C0.33 0.66 0.66 1.32 1 2 C1.556875 1.855625 2.11375 1.71125 2.6875 1.5625 C3.450625 1.376875 4.21375 1.19125 5 1 C5.825 0.79375 6.65 0.5875 7.5 0.375 C10.04524959 -0.00678744 11.58342581 0.19447527 14 1 C14 4 14 7 14 10 C13.4225 9.319375 12.845 8.63875 12.25 7.9375 C11.5075 7.298125 10.765 6.65875 10 6 C6.81351193 6.33996098 5.21677866 7.429473 3.0546875 9.72265625 C2.53519531 10.26083984 2.01570313 10.79902344 1.48046875 11.35351562 C0.68576172 12.19946289 0.68576172 12.19946289 -0.125 13.0625 C-2.04684332 15.09264864 -3.98809787 17.05555231 -6 19 C-6.66 19 -7.32 19 -8 19 C-8.2475 19.61875 -8.495 20.2375 -8.75 20.875 C-10.23740369 23.40358627 -11.43678009 23.71839004 -14 25 C-14.28875 25.598125 -14.5775 26.19625 -14.875 26.8125 C-16.55805758 30.08511196 -19.11451985 31.74179814 -22 34 C-22 33.01 -22 32.02 -22 31 C-21.34 31 -20.68 31 -20 31 C-19.896875 30.360625 -19.79375 29.72125 -19.6875 29.0625 C-19.460625 28.381875 -19.23375 27.70125 -19 27 C-18.01 26.67 -17.02 26.34 -16 26 C-16 24.02 -16 22.04 -16 20 C-15.67 20.66 -15.34 21.32 -15 22 C-12.46255685 21.45291273 -12.46255685 21.45291273 -10 20 C-9.61067967 18.01014051 -9.28112064 16.00800456 -9 14 C-6.74203767 10.90575532 -5.5104028 10.11778526 -1.75 9.25 C-0.8425 9.1675 0.065 9.085 1 9 C1.33 8.01 1.66 7.02 2 6 C1.34 5.67 0.68 5.34 0 5 C0 3.35 0 1.7 0 0 Z " fill="#E2665F" transform="translate(161,128)"/>
<path d="M0 0 C0.99 0.33 1.98 0.66 3 1 C2.01 1.99 1.02 2.98 0 4 C0.66 5.32 1.32 6.64 2 8 C-0.55435289 9.60829626 -1.54511517 10.09985277 -4.5625 9.4375 C-5.366875 9.293125 -6.17125 9.14875 -7 9 C-8.8354799 10.33378575 -8.8354799 10.33378575 -10 12 C-9.01 12.66 -8.02 13.32 -7 14 C-7.55429688 14.24234375 -8.10859375 14.4846875 -8.6796875 14.734375 C-9.40414062 15.06953125 -10.12859375 15.4046875 -10.875 15.75 C-11.95394531 16.23726563 -11.95394531 16.23726563 -13.0546875 16.734375 C-15.3370674 18.21929686 -16.00375898 19.50415408 -17 22 C-17.66 22 -18.32 22 -19 22 C-19.1546875 22.9590625 -19.1546875 22.9590625 -19.3125 23.9375 C-19.539375 24.618125 -19.76625 25.29875 -20 26 C-23 27 -23 27 -26 27 C-24.92245746 18.55925013 -18.53679676 14.56114154 -12.18359375 9.57421875 C-9.22912721 7.45286549 -6.60797585 6.42446775 -3 6 C-2.87625 5.195625 -2.7525 4.39125 -2.625 3.5625 C-2.315625 2.2940625 -2.315625 2.2940625 -2 1 C-1.34 0.67 -0.68 0.34 0 0 Z " fill="#D33732" transform="translate(199,341)"/>
<path d="M0 0 C1.32 0.33 2.64 0.66 4 1 C4.33 2.98 4.66 4.96 5 7 C4.34 7 3.68 7 3 7 C3 6.34 3 5.68 3 5 C2.34 5 1.68 5 1 5 C0.67 6.65 0.34 8.3 0 10 C-0.99 10 -1.98 10 -3 10 C-3.99 10.495 -3.99 10.495 -5 11 C-5 11.99 -5 12.98 -5 14 C-8 16.1875 -8 16.1875 -11 18 C-11.66 17.67 -12.32 17.34 -13 17 C-13.33 17.99 -13.66 18.98 -14 20 C-14.99 20.4640625 -14.99 20.4640625 -16 20.9375 C-16.66 21.288125 -17.32 21.63875 -18 22 C-18.12375 22.639375 -18.2475 23.27875 -18.375 23.9375 C-19 26 -19 26 -21.9375 27.8125 C-22.948125 28.204375 -23.95875 28.59625 -25 29 C-25.66 28.67 -26.32 28.34 -27 28 C-24.05596364 24.03687413 -20.81559926 21.11477491 -17 18 C-15.32229617 16.34444408 -13.65680499 14.67647033 -12 13 C-11.14019531 12.15179688 -10.28039062 11.30359375 -9.39453125 10.4296875 C-8.54246094 9.58664062 -7.69039062 8.74359375 -6.8125 7.875 C-5.95269531 7.02679688 -5.09289062 6.17859375 -4.20703125 5.3046875 C-1.87938579 3.00850005 -1.87938579 3.00850005 0 0 Z " fill="#CE3F39" transform="translate(215,321)"/>
<path d="M0 0 C0.99 0.33 1.98 0.66 3 1 C3 1.66 3 2.32 3 3 C4.32 3.66 5.64 4.32 7 5 C-0.92 12.92 -8.84 20.84 -17 29 C-17.66 27.68 -18.32 26.36 -19 25 C-17.625 22.4375 -17.625 22.4375 -16 20 C-16 19.01 -16 18.02 -16 17 C-14.39125 16.87625 -14.39125 16.87625 -12.75 16.75 C-8.63499999 15.927 -7.71493763 15.0058238 -5 12 C-4.01 12 -3.02 12 -2 12 C-2.04125 10.7625 -2.0825 9.525 -2.125 8.25 C-2.13658291 4.98362038 -1.8568702 2.7853053 0 0 Z " fill="#DE5D53" transform="translate(306,145)"/>
<path d="M0 0 C1.39130435 5.2173913 1.39130435 5.2173913 0 8 C-2.25200569 9.57694404 -4.53736677 10.74629581 -7 12 C-7 12.66 -7 13.32 -7 14 C-7.99 14.495 -7.99 14.495 -9 15 C-9.33 15.99 -9.66 16.98 -10 18 C-10.763125 18.144375 -11.52625 18.28875 -12.3125 18.4375 C-15.08172908 18.9632594 -15.08172908 18.9632594 -18 20 C-18.433125 21.11375 -18.433125 21.11375 -18.875 22.25 C-20.95799385 27.34176274 -25.12143395 30.62664354 -30 33 C-30.66 32.67 -31.32 32.34 -32 32 C-29.88094537 29.82722286 -27.75527122 27.66173092 -25.625 25.5 C-25.02171875 24.87996094 -24.4184375 24.25992187 -23.796875 23.62109375 C-23.21679688 23.03457031 -22.63671875 22.44804687 -22.0390625 21.84375 C-21.50490723 21.29912109 -20.97075195 20.75449219 -20.42041016 20.19335938 C-19 19 -19 19 -17 19 C-16.7417041 18.41573242 -16.4834082 17.83146484 -16.21728516 17.22949219 C-14.90326864 14.82283378 -13.47519985 13.24680663 -11.5234375 11.328125 C-10.853125 10.66425781 -10.1828125 10.00039063 -9.4921875 9.31640625 C-8.79351562 8.63449219 -8.09484375 7.95257813 -7.375 7.25 C-6.31539063 6.20392578 -6.31539063 6.20392578 -5.234375 5.13671875 C-3.49401297 3.41987512 -1.74915019 1.70788168 0 0 Z " fill="#CF413B" transform="translate(366,332)"/>
<path d="M0 0 C0.433125 0.9590625 0.433125 0.9590625 0.875 1.9375 C1.82823451 4.15206079 1.82823451 4.15206079 4 5 C3.59773992 8.31864568 2.97309928 10.03740534 0.99121094 12.79321289 C-2.28190592 18.43166667 -1.60543936 24.91881903 -1.609375 31.24609375 C-1.62437385 32.62616399 -1.64110457 34.00621638 -1.65948486 35.38624573 C-1.70298036 38.99800489 -1.72311739 42.609522 -1.73822021 46.22149658 C-1.75785612 49.91538704 -1.79981852 53.60901853 -1.83984375 57.30273438 C-1.91495252 64.53508632 -1.96536027 71.76732891 -2 79 C-2.33 79 -2.66 79 -3 79 C-3.06974017 70.02860928 -3.12293255 61.05731297 -3.15543652 52.08570957 C-3.17104268 47.91910233 -3.19218772 43.75268158 -3.22631836 39.58618164 C-3.25909322 35.55964786 -3.27689092 31.53329262 -3.28463173 27.50663567 C-3.2901429 25.97615692 -3.30090435 24.44568712 -3.31719017 22.91528511 C-3.40053249 14.75334733 -3.23544186 7.61653615 0 0 Z " fill="#D6615B" transform="translate(51,95)"/>
<path d="M0 0 C2.475 0.99 2.475 0.99 5 2 C5.33 1.34 5.66 0.68 6 0 C7.9375 0.8125 7.9375 0.8125 10 2 C10.33 2.99 10.66 3.98 11 5 C8.69 7.31 6.38 9.62 4 12 C-0.53786224 9.73106888 -1.94678157 7.90133466 -5 4 C-4.01 3.67 -3.02 3.34 -2 3 C-1.34 2.01 -0.68 1.02 0 0 Z M2 2 C3 4 3 4 3 4 Z " fill="#DC5349" transform="translate(247,200)"/>
<path d="M0 0 C0.99 0.66 1.98 1.32 3 2 C-3 8 -9 14 -15 20 C-15.33 18.68 -15.66 17.36 -16 16 C-14.68 15.67 -13.36 15.34 -12 15 C-11.14308359 11.57233436 -10.98825503 9.37248325 -12 6 C-12 5.01 -12 4.02 -12 3 C-10.72125 3.04125 -9.4425 3.0825 -8.125 3.125 C-5.98128508 3.24212873 -5.98128508 3.24212873 -4 3 C-3.34 2.34 -2.68 1.68 -2 1 C-1.67 1.33 -1.34 1.66 -1 2 C-0.67 1.34 -0.34 0.68 0 0 Z M-10 8 C-10 8.66 -10 9.32 -10 10 C-9.01 9.67 -8.02 9.34 -7 9 C-7.99 8.67 -8.98 8.34 -10 8 Z " fill="#DC5B53" transform="translate(284,174)"/>
<path d="M0 0 C0.495 1.485 0.495 1.485 1 3 C-0.14453125 4.82421875 -0.14453125 4.82421875 -1.8125 6.6875 C-2.35519531 7.31011719 -2.89789063 7.93273437 -3.45703125 8.57421875 C-5 10 -5 10 -7 10 C-7 10.66 -7 11.32 -7 12 C-8.390625 13.3671875 -8.390625 13.3671875 -10.25 14.875 C-12.97835286 17.13484782 -15.5380072 19.44682228 -18 22 C-21.66666667 25.66666667 -25.33333333 29.33333333 -29 33 C-29.99 32.67 -30.98 32.34 -32 32 C-21.44 21.44 -10.88 10.88 0 0 Z " fill="#FADAD8" transform="translate(307,155)"/>
<path d="M0 0 C6.4207091 0.77646111 9.50964145 4.88529887 13.875 9.3125 C15.06996094 10.47168945 15.06996094 10.47168945 16.2890625 11.65429688 C17.03671875 12.40388672 17.784375 13.15347656 18.5546875 13.92578125 C19.24030762 14.61067627 19.92592773 15.29557129 20.63232422 16.0012207 C22 18 22 18 21.71533203 20.25463867 C21.47927246 20.83060791 21.24321289 21.40657715 21 22 C20.01 22 19.02 22 18 22 C18.66 21.67 19.32 21.34 20 21 C19.67 20.34 19.34 19.68 19 19 C18.01 18.67 17.02 18.34 16 18 C15.67 16.35 15.34 14.7 15 13 C14.01 13.33 13.02 13.66 12 14 C12 13.01 12 12.02 12 11 C11.38125 10.9175 10.7625 10.835 10.125 10.75 C8 10 8 10 6.75 7.9375 C6.5025 7.298125 6.255 6.65875 6 6 C4.02 6.33 2.04 6.66 0 7 C0 4.69 0 2.38 0 0 Z " fill="#C34641" transform="translate(288,329)"/>
<path d="M0 0 C2.31 0.33 4.62 0.66 7 1 C6.95875 1.763125 6.9175 2.52625 6.875 3.3125 C6.77919176 6.22718416 6.77919176 6.22718416 9 9 C8.01 9 7.02 9 6 9 C5.525625 8.484375 5.05125 7.96875 4.5625 7.4375 C4.046875 6.963125 3.53125 6.48875 3 6 C-0.85902829 6.32912821 -2.66033378 8.34335046 -5.25 11.0625 C-5.95640625 11.79597656 -6.6628125 12.52945313 -7.390625 13.28515625 C-8.18726563 14.13400391 -8.18726563 14.13400391 -9 15 C-9.33 14.01 -9.66 13.02 -10 12 C-9.34 11.67 -8.68 11.34 -8 11 C-7.53476937 9.10466658 -7.53476937 9.10466658 -7.375 6.9375 C-7.25125 5.638125 -7.1275 4.33875 -7 3 C-6.01 2.67 -5.02 2.34 -4 2 C-4.33 3.32 -4.66 4.64 -5 6 C-4.34 6 -3.68 6 -3 6 C-2.67 5.34 -2.34 4.68 -2 4 C-1.33333333 2.66666667 -0.66666667 1.33333333 0 0 Z " fill="#E1655C" transform="translate(329,128)"/>
<path d="M0 0 C3.54308324 3.14507169 5.5889411 6.60074099 7.625 10.8125 C7.9240625 11.40353516 8.223125 11.99457031 8.53125 12.60351562 C11.93736343 19.51370592 13.26634223 25.40924653 13 33 C11.68 32.67 10.36 32.34 9 32 C9.66 31.67 10.32 31.34 11 31 C10.835 30.505 10.67 30.01 10.5 29.5 C9.79311182 25.96555911 9.93994845 22.60309299 10 19 C9.34 19 8.68 19 8 19 C7.67 18.34 7.34 17.68 7 17 C6.34 17 5.68 17 5 17 C5.0515625 16.28199219 5.103125 15.56398438 5.15625 14.82421875 C4.97468886 11.54250121 4.06388716 9.68397059 2.5 6.8125 C0 2.18055556 0 2.18055556 0 0 Z " fill="#E38C85" transform="translate(439,79)"/>
<path d="M0 0 C1.010625 0.45375 2.02125 0.9075 3.0625 1.375 C2.258125 1.99375 1.45375 2.6125 0.625 3.25 C-1.97624519 5.11664041 -1.97624519 5.11664041 -2.9375 7.375 C-3.9275 7.705 -4.9175 8.035 -5.9375 8.375 C-6.2675 9.035 -6.5975 9.695 -6.9375 10.375 C-7.5975 10.375 -8.2575 10.375 -8.9375 10.375 C-9.2675 11.695 -9.5975 13.015 -9.9375 14.375 C-9.9375 13.715 -9.9375 13.055 -9.9375 12.375 C-10.5975 12.045 -11.2575 11.715 -11.9375 11.375 C-11.83533038 7.08387599 -10.82989928 4.80464494 -7.8125 1.875 C-4.64040989 -0.6600451 -4.29245125 -0.68134147 0 0 Z " fill="#D3423B" transform="translate(240.9375,300.625)"/>
<path d="M0 0 C0.66 0.33 1.32 0.66 2 1 C1.21718695 2.33855056 0.42348123 3.67073644 -0.375 5 C-0.81585938 5.7425 -1.25671875 6.485 -1.7109375 7.25 C-2.13632812 7.8275 -2.56171875 8.405 -3 9 C-3.66 9 -4.32 9 -5 9 C-5.2475 9.61875 -5.495 10.2375 -5.75 10.875 C-7.20628639 13.35068687 -8.37812506 13.95125002 -11 15 C-11 15.66 -11 16.32 -11 17 C-12.65 17.66 -14.3 18.32 -16 19 C-16 19.66 -16 20.32 -16 21 C-17.32 21.33 -18.64 21.66 -20 22 C-19.67 20.68 -19.34 19.36 -19 18 C-17.68 18 -16.36 18 -15 18 C-15 17.01 -15 16.02 -15 15 C-13.35 14.67 -11.7 14.34 -10 14 C-10 13.01 -10 12.02 -10 11 C-9.01 11 -8.02 11 -7 11 C-7.33 10.01 -7.66 9.02 -8 8 C-7.01 8 -6.02 8 -5 8 C-5 7.01 -5 6.02 -5 5 C-4.34 5 -3.68 5 -3 5 C-2.87625 4.360625 -2.7525 3.72125 -2.625 3.0625 C-2.315625 2.0415625 -2.315625 2.0415625 -2 1 C-1.34 0.67 -0.68 0.34 0 0 Z " fill="#CF6967" transform="translate(442,414)"/>
<path d="M0 0 C0 3.59857954 -0.95830515 5.09451118 -3 8 C-3.66 8 -4.32 8 -5 8 C-5 8.66 -5 9.32 -5 10 C-6.828125 11.55078125 -6.828125 11.55078125 -9.25 13.3125 C-12.75616545 15.94075235 -15.27409035 18.56737304 -18 22 C-20.10546875 22.6328125 -20.10546875 22.6328125 -22 23 C-17.47008204 17.56266945 -12.65705784 12.53541069 -7.625 7.5625 C-6.88894531 6.83095703 -6.15289062 6.09941406 -5.39453125 5.34570312 C-3.59863926 3.56147277 -1.80044015 1.77963876 0 0 Z " fill="#FAD8D6" transform="translate(202,260)"/>
<path d="M0 0 C0.99 0 1.98 0 3 0 C3 0.66 3 1.32 3 2 C5.39719432 2.67958603 5.39719432 2.67958603 8 3 C8.66 2.34 9.32 1.68 10 1 C10.103125 2.11375 10.20625 3.2275 10.3125 4.375 C10.6528125 6.169375 10.6528125 6.169375 11 8 C11.99 8.66 12.98 9.32 14 10 C14 10.99 14 11.98 14 13 C14.99 13.33 15.98 13.66 17 14 C17 14.66 17 15.32 17 16 C17.66 16 18.32 16 19 16 C18.67 16.99 18.34 17.98 18 19 C16.49403892 17.54782324 14.99537896 16.08807139 13.5 14.625 C12.6646875 13.81289062 11.829375 13.00078125 10.96875 12.1640625 C9 10 9 10 9 8 C8.443125 7.79375 7.88625 7.5875 7.3125 7.375 C4.07498698 5.44999226 2.31768859 2.96149098 0 0 Z " fill="#DD6962" transform="translate(342,143)"/>
<path d="M0 0 C0.99 0.33 1.98 0.66 3 1 C3.33 2.65 3.66 4.3 4 6 C3.38511719 6.07476562 2.77023438 6.14953125 2.13671875 6.2265625 C-0.37475548 6.63512769 -2.62108228 7.08892513 -5 8 C-7.14665717 10.95234447 -7.14665717 10.95234447 -8 14 C-9.32 13.01 -10.64 12.02 -12 11 C-11.46890625 10.54109375 -10.9378125 10.0821875 -10.390625 9.609375 C-6.81675301 6.50506283 -3.28145941 3.41818688 0 0 Z " fill="#CF423D" transform="translate(249,288)"/>
<path d="M0 0 C0.33 0.66 0.66 1.32 1 2 C1.556875 1.855625 2.11375 1.71125 2.6875 1.5625 C3.450625 1.376875 4.21375 1.19125 5 1 C5.825 0.79375 6.65 0.5875 7.5 0.375 C10.04524959 -0.00678744 11.58342581 0.19447527 14 1 C14 4 14 7 14 10 C13.360625 9.175 12.72125 8.35 12.0625 7.5 C7.97615535 4.16420845 5.07127064 4.5028166 0 5 C0 3.35 0 1.7 0 0 Z " fill="#E56059" transform="translate(161,128)"/>
<path d="M0 0 C-0.33 0.99 -0.66 1.98 -1 3 C-1.66 3 -2.32 3 -3 3 C-3 4.98 -3 6.96 -3 9 C-3.61875 9.20625 -4.2375 9.4125 -4.875 9.625 C-7.84653645 11.54775888 -8.13024659 13.66594527 -9 17 C-9.99 17 -10.98 17 -12 17 C-12 16.01 -12 15.02 -12 14 C-12.33 13.34 -12.66 12.68 -13 12 C-12.236875 11.278125 -11.47375 10.55625 -10.6875 9.8125 C-8.2756884 7.28851112 -6.76588391 4.96989567 -5 2 C-2 0 -2 0 0 0 Z " fill="#D3352D" transform="translate(353,350)"/>
<path d="M0 0 C0.721875 0.185625 1.44375 0.37125 2.1875 0.5625 C5.12826973 1.01995307 7.14103058 0.73516357 10 0 C6.44062412 4.69190456 1.58828983 5.99017121 -4 7 C-6.51978649 6.95540201 -8.53211102 6.59014736 -11 6 C-7.31265242 3.54176828 -4.30300029 2.98757384 0 2 C0 1.34 0 0.68 0 0 Z " fill="#C64945" transform="translate(408,437)"/>
<path d="M0 0 C3.3 0 6.6 0 10 0 C11 3 11 3 10.4375 5.4375 C9.92094428 8.46304065 10.54475098 9.39383161 12 12 C7.47384007 8.32167983 3.60575001 4.58913637 0 0 Z " fill="#DB574E" transform="translate(230,192)"/>
<path d="M0 0 C2.9375 0.75 2.9375 0.75 6 2 C6.875 4.125 6.875 4.125 7 6 C11.53140653 6.93380961 11.53140653 6.93380961 16 6 C16 7.32 16 8.64 16 10 C15.34 10 14.68 10 14 10 C13.67 11.32 13.34 12.64 13 14 C10.83031809 11.85714108 8.66416525 9.71091768 6.5 7.5625 C5.87996094 6.95083984 5.25992188 6.33917969 4.62109375 5.70898438 C4.03457031 5.12568359 3.44804687 4.54238281 2.84375 3.94140625 C2.02680664 3.13231812 2.02680664 3.13231812 1.19335938 2.30688477 C0 1 0 1 0 0 Z " fill="#DA635C" transform="translate(176,138)"/>
<path d="M0 0 C0 3 0 3 -2 6 C-2.66 6 -3.32 6 -4 6 C-4.226875 6.721875 -4.45375 7.44375 -4.6875 8.1875 C-7.04230888 13.23351903 -11.0301926 16.58225586 -16 19 C-16.66 18.67 -17.32 18.34 -18 18 C-15.88094537 15.82722286 -13.75527122 13.66173092 -11.625 11.5 C-11.02171875 10.87996094 -10.4184375 10.25992187 -9.796875 9.62109375 C-9.21679688 9.03457031 -8.63671875 8.44804687 -8.0390625 7.84375 C-7.50490723 7.29912109 -6.97075195 6.75449219 -6.42041016 6.19335938 C-5 5 -5 5 -3 5 C-2.690625 4.360625 -2.38125 3.72125 -2.0625 3.0625 C-1 1 -1 1 0 0 Z " fill="#CA524D" transform="translate(352,346)"/>
<path d="M0 0 C0.33 0.99 0.66 1.98 1 3 C-0.1446875 3.5878125 -0.1446875 3.5878125 -1.3125 4.1875 C-4.30517686 6.20581695 -5.3130041 7.8560531 -7 11 C-8.375 13.3125 -8.375 13.3125 -10 15 C-12.6875 15.25 -12.6875 15.25 -15 15 C-4.21052632 2.10526316 -4.21052632 2.10526316 0 0 Z " fill="#DE716E" transform="translate(366,171)"/>
<path d="M0 0 C1.2065625 0.0309375 1.2065625 0.0309375 2.4375 0.0625 C-2.22916667 4.72916667 -6.89583333 9.39583333 -11.5625 14.0625 C-12.20703125 12.234375 -12.20703125 12.234375 -12.5625 10.0625 C-10.25 7.3125 -10.25 7.3125 -7.5625 5.0625 C-6.9025 5.0625 -6.2425 5.0625 -5.5625 5.0625 C-5.253125 4.423125 -4.94375 3.78375 -4.625 3.125 C-3.05351796 0.07447605 -3.05351796 0.07447605 0 0 Z " fill="#DD726C" transform="translate(167.5625,131.9375)"/>
<path d="M0 0 C4.88049925 3.9419417 9.0580583 8.11950075 13 13 C10.625 13.1875 10.625 13.1875 8 13 C6 10 6 10 6 8 C5.360625 7.87625 4.72125 7.7525 4.0625 7.625 C3.381875 7.41875 2.70125 7.2125 2 7 C1.67 6.34 1.34 5.68 1 5 C0.01 4.67 -0.98 4.34 -2 4 C-1 1 -1 1 0 0 Z " fill="#DA5850" transform="translate(162,200)"/>
<path d="M0 0 C1.9375 0.375 1.9375 0.375 4 1 C4.33 1.66 4.66 2.32 5 3 C5.969375 3.433125 6.93875 3.86625 7.9375 4.3125 C11.49091008 6.27050147 11.73730127 7.30903448 13 11 C13.99 11.33 14.98 11.66 16 12 C16.33 13.65 16.66 15.3 17 17 C10.98173262 12.02838782 5.33662648 6.70170757 0 1 C0 0.67 0 0.34 0 0 Z " fill="#C84642" transform="translate(347,309)"/>
<path d="M0 0 C4.13621084 3.3810038 7.81316569 6.66590534 11 11 C9.02 11 7.04 11 5 11 C5.33 10.01 5.66 9.02 6 8 C5.01 8 4.02 8 3 8 C3 8.99 3 9.98 3 11 C2.34 11 1.68 11 1 11 C1.03255208 9.01432292 1.06510417 7.02864583 1.09765625 5.04296875 C1.08263217 2.79694539 1.08263217 2.79694539 0 0 Z " fill="#DD5A53" transform="translate(143,181)"/>
<path d="M0 0 C0.33 0.66 0.66 1.32 1 2 C1.66 2 2.32 2 3 2 C3 2.66 3 3.32 3 4 C1.35 4.33 -0.3 4.66 -2 5 C-2.33 7.64 -2.66 10.28 -3 13 C-3.66 12.34 -4.32 11.68 -5 11 C-5.78375 11.515625 -6.5675 12.03125 -7.375 12.5625 C-8.24125 13.036875 -9.1075 13.51125 -10 14 C-10.66 13.67 -11.32 13.34 -12 13 C-10.56354149 11.39490066 -9.12579294 9.79095576 -7.6875 8.1875 C-6.88699219 7.29417969 -6.08648437 6.40085938 -5.26171875 5.48046875 C-3.54775419 3.60073214 -1.82122396 1.77407253 0 0 Z " fill="#D96761" transform="translate(305,231)"/>
<path d="M0 0 C0.433125 0.9590625 0.433125 0.9590625 0.875 1.9375 C1.82823451 4.15206079 1.82823451 4.15206079 4 5 C3.625 7.4375 3.625 7.4375 3 10 C2.01 10.495 2.01 10.495 1 11 C0.34 10.67 -0.32 10.34 -1 10 C-1.33 11.65 -1.66 13.3 -2 15 C-2.33 15 -2.66 15 -3 15 C-2.22095672 4.44191344 -2.22095672 4.44191344 0 0 Z " fill="#E57D76" transform="translate(51,95)"/>
<path d="M0 0 C0.99 0.495 0.99 0.495 2 1 C2 1.99 2 2.98 2 4 C2.66 4 3.32 4 4 4 C5.24200752 9.3177215 6.30834212 14.58201328 7 20 C2.44578391 14.33659088 -0.77693274 7.38086103 0 0 Z " fill="#C85150" transform="translate(49,394)"/>
<path d="M0 0 C6.74189767 3.51140504 13.88150668 7.78155862 17 15 C15.35 14.67 13.7 14.34 12 14 C12.33 13.01 12.66 12.02 13 11 C12.01 11 11.02 11 10 11 C10 10.34 10 9.68 10 9 C9.4225 8.731875 8.845 8.46375 8.25 8.1875 C5.94449957 6.97070811 3.97943808 5.69666121 2 4 C2 3.34 2 2.68 2 2 C1.34 2 0.68 2 0 2 C0 1.34 0 0.68 0 0 Z " fill="#E1877E" transform="translate(422,64)"/>
<path d="M0 0 C0 4.82605458 -3.24604019 7.22719119 -6.5 10.5625 C-7.325 11.366875 -8.15 12.17125 -9 13 C-10.1446875 14.1446875 -10.1446875 14.1446875 -11.3125 15.3125 C-11.869375 15.869375 -12.42625 16.42625 -13 17 C-13.99 16.67 -14.98 16.34 -16 16 C-10.72 10.72 -5.44 5.44 0 0 Z " fill="#FAD6D4" transform="translate(291,171)"/>
<path d="M0 0 C0 3.3 0 6.6 0 10 C-6.75 4.375 -6.75 4.375 -9 1 C-5.94152152 0.45627049 -3.11227195 0 0 0 Z " fill="#DF564D" transform="translate(224,176)"/>
<path d="M0 0 C1.24546405 2.49092811 0.7767578 3.41080733 0 6 C-0.66 6 -1.32 6 -2 6 C-2.268125 7.0725 -2.53625 8.145 -2.8125 9.25 C-3.86117431 12.56160307 -4.62752161 14.52866834 -7 17 C-7.66 17 -8.32 17 -9 17 C-8.31066647 13.40865743 -6.82128141 10.5657477 -5.0625 7.375 C-4.53785156 6.41335937 -4.01320313 5.45171875 -3.47265625 4.4609375 C-2 2 -2 2 0 0 Z " fill="#E68983" transform="translate(61,78)"/>
<path d="M0 0 C-0.33 0.66 -0.66 1.32 -1 2 C-1.78375 2.144375 -2.5675 2.28875 -3.375 2.4375 C-6.25125721 3.05384083 -7.16384707 3.77728856 -9 6 C-9 5.34 -9 4.68 -9 4 C-13.455 4.495 -13.455 4.495 -18 5 C-12.13594584 0.22188179 -7.34249592 -0.28794102 0 0 Z " fill="#E48B83" transform="translate(100,57)"/>
<path d="M0 0 C0.66 0.33 1.32 0.66 2 1 C0.52278578 4.45201639 -1.43794001 6.64961936 -4.125 9.25 C-4.84945312 9.95640625 -5.57390625 10.6628125 -6.3203125 11.390625 C-6.87460938 11.92171875 -7.42890625 12.4528125 -8 13 C-8.66 12.01 -9.32 11.02 -10 10 C-9.01 10 -8.02 10 -7 10 C-7 8.35 -7 6.7 -7 5 C-5.68 5.33 -4.36 5.66 -3 6 C-2.814375 4.7934375 -2.814375 4.7934375 -2.625 3.5625 C-2.41875 2.716875 -2.2125 1.87125 -2 1 C-1.34 0.67 -0.68 0.34 0 0 Z " fill="#CF4A42" transform="translate(185,273)"/>
<path d="M0 0 C-1.84205838 2.54379491 -3.72478134 4.83312509 -6 7 C-6.33 6.34 -6.66 5.68 -7 5 C-8.98 5.99 -8.98 5.99 -11 7 C-11.33 5.68 -11.66 4.36 -12 3 C-4.71428571 -0.42857143 -4.71428571 -0.42857143 0 0 Z " fill="#ED665D" transform="translate(105,57)"/>
<path d="M0 0 C2.86697492 1.28519565 4.97607712 2.57129254 7 5 C7 5.66 7 6.32 7 7 C8.98 5.68 10.96 4.36 13 3 C12.3125 4.9375 12.3125 4.9375 11 7 C8.10113489 8.06800294 6.67303849 8.28844507 3.8125 7.0625 C3.214375 6.711875 2.61625 6.36125 2 6 C1.34 6 0.68 6 0 6 C0 4.02 0 2.04 0 0 Z " fill="#C74440" transform="translate(161,361)"/>
<path d="M0 0 C4.91935902 4.11619836 9.52647956 8.40410362 14 13 C12.68 13.33 11.36 13.66 10 14 C7.59927045 11.11912454 5.52708963 8.43595166 4 5 C3.01 5 2.02 5 1 5 C0.67 3.35 0.34 1.7 0 0 Z " fill="#C74642" transform="translate(275,313)"/>
<path d="M0 0 C0.33 0.66 0.66 1.32 1 2 C-2.24571282 7.7858359 -6.6654873 11.14729638 -12 15 C-12.66 14.67 -13.32 14.34 -14 14 C-12.38113585 12.32737283 -10.7547271 10.66204463 -9.125 9 C-8.22007812 8.071875 -7.31515625 7.14375 -6.3828125 6.1875 C-4 4 -4 4 -2 4 C-1.34 2.68 -0.68 1.36 0 0 Z " fill="#F9D8D7" transform="translate(274,188)"/>
<path d="M0 0 C3.625 -0.1875 3.625 -0.1875 7 0 C5.38405168 2.04119788 3.7143618 4.04072937 2 6 C1.34 6 0.68 6 0 6 C0.33 6.99 0.66 7.98 1 9 C0.34 9 -0.32 9 -1 9 C-1.625 6.1875 -1.625 6.1875 -2 3 C-1.34 2.01 -0.68 1.02 0 0 Z " fill="#DD655E" transform="translate(132,162)"/>
<path d="M0 0 C1.9375 0.3125 1.9375 0.3125 4 1 C4.33 1.99 4.66 2.98 5 4 C6.85744207 4.61067144 6.85744207 4.61067144 9 5 C10.34348935 5.64595557 11.67850557 6.31016328 13 7 C11.0412957 6.85923685 9.08303907 6.7122324 7.125 6.5625 C6.03445312 6.48128906 4.94390625 6.40007812 3.8203125 6.31640625 C1 6 1 6 -1 5 C-0.67 3.35 -0.34 1.7 0 0 Z " fill="#C53430" transform="translate(83,434)"/>
<path d="M0 0 C0.99 0.66 1.98 1.32 3 2 C2.34 2 1.68 2 1 2 C0.67 4.31 0.34 6.62 0 9 C-0.66 9 -1.32 9 -2 9 C-2.28875 9.639375 -2.5775 10.27875 -2.875 10.9375 C-4 13 -4 13 -6 14 C-6 12.68 -6 11.36 -6 10 C-5.34 10 -4.68 10 -4 10 C-3.896875 9.0925 -3.79375 8.185 -3.6875 7.25 C-2.99585051 3.98038425 -2.17865079 2.46282263 0 0 Z " fill="#E2635E" transform="translate(155,138)"/>
<path d="M0 0 C0.33 0.66 0.66 1.32 1 2 C2.65 2 4.3 2 6 2 C-0.15034169 9.48291572 -0.15034169 9.48291572 -4 12 C-4 10.35 -4 8.7 -4 7 C-3.34 6.67 -2.68 6.34 -2 6 C-1.34 6.33 -0.68 6.66 0 7 C0 4.69 0 2.38 0 0 Z " fill="#D95850" transform="translate(262,192)"/>
<path d="M0 0 C0.33 0.66 0.66 1.32 1 2 C-0.24885282 5.40788652 -2.2490097 7.43441268 -4.9375 9.8125 C-5.62714844 10.43769531 -6.31679688 11.06289062 -7.02734375 11.70703125 C-8.00380859 12.34705078 -8.00380859 12.34705078 -9 13 C-9.99 12.67 -10.98 12.34 -12 12 C-8.04 8.04 -4.08 4.08 0 0 Z " fill="#FADCD9" transform="translate(320,142)"/>
<path d="M0 0 C0.66 0 1.32 0 2 0 C1.50168276 3.68754757 0.89932357 5.60490662 -2 8 C-3.125 4.25 -3.125 4.25 -2 2 C-1.34 2 -0.68 2 0 2 C0 1.34 0 0.68 0 0 Z M-5 8 C-3.68 8.66 -2.36 9.32 -1 10 C-1.33 10.66 -1.66 11.32 -2 12 C-3.32 12 -4.64 12 -6 12 C-5.67 10.68 -5.34 9.36 -5 8 Z " fill="#E7655B" transform="translate(64,76)"/>
<path d="M0 0 C2.31 0 4.62 0 7 0 C6.875 1.8125 6.875 1.8125 6 4 C3.0625 5.8125 3.0625 5.8125 0 7 C-0.66 6.67 -1.32 6.34 -2 6 C-1.67 5.67 -1.34 5.34 -1 5 C-1.66 4.34 -2.32 3.68 -3 3 C-2.34 3 -1.68 3 -1 3 C-0.67 2.01 -0.34 1.02 0 0 Z " fill="#CE4643" transform="translate(416,433)"/>
<path d="M0 0 C4.8991349 1.29977048 9.37559575 2.92373687 14 5 C13.01 5.66 12.02 6.32 11 7 C7.3125 6.125 7.3125 6.125 4 5 C4 4.34 4 3.68 4 3 C2.68 2.67 1.36 2.34 0 2 C0 1.34 0 0.68 0 0 Z " fill="#E48C88" transform="translate(408,58)"/>
<path d="M0 0 C3.29865513 0.36651724 4.09849137 1.10606763 6.4375 3.625 C7.283125 4.40875 8.12875 5.1925 9 6 C11.760165 5.95020416 11.760165 5.95020416 14 5 C13.67 6.32 13.34 7.64 13 9 C10.03 8.505 10.03 8.505 7 8 C6.67 7.01 6.34 6.02 6 5 C5.01 4.67 4.02 4.34 3 4 C3 3.34 3 2.68 3 2 C2.01 2 1.02 2 0 2 C0 1.34 0 0.68 0 0 Z " fill="#C94643" transform="translate(320,360)"/>
<path d="M0 0 C2.31 0.33 4.62 0.66 7 1 C7.103125 1.598125 7.20625 2.19625 7.3125 2.8125 C8.08876455 5.28243264 9.07088921 6.32251235 11 8 C10.67 8.99 10.34 9.98 10 11 C8.33035479 9.35718838 6.6643536 7.71067239 5 6.0625 C4.071875 5.14597656 3.14375 4.22945312 2.1875 3.28515625 C0 1 0 1 0 0 Z " fill="#D95D55" transform="translate(197,159)"/>
<path d="M0 0 C0 0.66 0 1.32 0 2 C-1.65 2.33 -3.3 2.66 -5 3 C-5 3.99 -5 4.98 -5 6 C-5.99 5.67 -6.98 5.34 -8 5 C-8 3.02 -8 1.04 -8 -1 C-4.37673261 -2.2077558 -3.35853631 -1.54311128 0 0 Z " fill="#CF2B23" transform="translate(432,426)"/>
<path d="M0 0 C1 3 1 3 -0.125 5.6875 C-2 8 -2 8 -4.6875 8.3125 C-5.450625 8.209375 -6.21375 8.10625 -7 8 C-6.67 6.68 -6.34 5.36 -6 4 C-5.34 4 -4.68 4 -4 4 C-4 3.34 -4 2.68 -4 2 C-2.68 1.34 -1.36 0.68 0 0 Z " fill="#D0342C" transform="translate(180,360)"/>
<path d="M0 0 C3.25543229 0.34879632 4.01873107 1.02133261 6.25 3.5625 C6.8275 4.366875 7.405 5.17125 8 6 C5.36 6.33 2.72 6.66 0 7 C0 4.69 0 2.38 0 0 Z " fill="#C93C35" transform="translate(312,352)"/>
<path d="M0 0 C0.33 0.66 0.66 1.32 1 2 C-1.31 5.3 -3.62 8.6 -6 12 C-6.66 11.67 -7.32 11.34 -8 11 C-7.43040847 7.37386801 -6.07625466 5.74482259 -3.4375 3.25 C-2.79683594 2.63640625 -2.15617188 2.0228125 -1.49609375 1.390625 C-1.00238281 0.93171875 -0.50867188 0.4728125 0 0 Z " fill="#F9DCD8" transform="translate(141,321)"/>
<path d="M0 0 C0.33 1.32 0.66 2.64 1 4 C0.34 4 -0.32 4 -1 4 C-1 4.66 -1 5.32 -1 6 C-2.63260714 7.37482707 -4.30225062 8.70647667 -6 10 C-6.66 10.66 -7.32 11.32 -8 12 C-8.66 11.34 -9.32 10.68 -10 10 C-6.7 6.7 -3.4 3.4 0 0 Z " fill="#F8D8D6" transform="translate(174,288)"/>
<path d="M0 0 C1.11375 0.3403125 1.11375 0.3403125 2.25 0.6875 C1.321875 1.0896875 1.321875 1.0896875 0.375 1.5 C-2.34310093 3.01893875 -3.37933931 4.94617861 -4.75 7.6875 C-6.07 7.3575 -7.39 7.0275 -8.75 6.6875 C-6.97710463 2.40300285 -4.94524284 -0.56195941 0 0 Z " fill="#DA534C" transform="translate(314.75,226.3125)"/>
<path d="M0 0 C2.4375 0.8125 2.4375 0.8125 5 2 C5.33 2.99 5.66 3.98 6 5 C4.68 5 3.36 5 2 5 C2 5.66 2 6.32 2 7 C0.35 6.67 -1.3 6.34 -3 6 C-2.67 4.68 -2.34 3.36 -2 2 C-1.34 2 -0.68 2 0 2 C0 1.34 0 0.68 0 0 Z " fill="#E5534D" transform="translate(252,200)"/>
<path d="M0 0 C-0.375 2.4375 -0.375 2.4375 -1 5 C-1.99 5.495 -1.99 5.495 -3 6 C-3.33 6.99 -3.66 7.98 -4 9 C-4.66 9 -5.32 9 -6 9 C-6.33 7.02 -6.66 5.04 -7 3 C-3.375 0 -3.375 0 0 0 Z " fill="#C92B25" transform="translate(64,408)"/>
<path d="M0 0 C0.8125 1.6875 0.8125 1.6875 1 4 C-1.40123201 7.03685225 -3.06049508 8.72858747 -6.8125 9.8125 C-7.534375 9.874375 -8.25625 9.93625 -9 10 C-8.06409496 8.8944811 -7.12620142 7.79064547 -6.1875 6.6875 C-5.66542969 6.07261719 -5.14335937 5.45773437 -4.60546875 4.82421875 C-3.12827531 3.14575321 -1.59960869 1.56117966 0 0 Z " fill="#CD554F" transform="translate(366,332)"/>
<path d="M0 0 C2.31 0 4.62 0 7 0 C6.34 1.32 5.68 2.64 5 4 C5.66 4 6.32 4 7 4 C6.67 4.99 6.34 5.98 6 7 C4.02 6.01 2.04 5.02 0 4 C0 2.68 0 1.36 0 0 Z " fill="#D63E37" transform="translate(345,304)"/>
<path d="M0 0 C0 3 0 3 -1.53125 4.6484375 C-2.50578125 5.50308594 -2.50578125 5.50308594 -3.5 6.375 C-6.46898291 9.09428135 -6.46898291 9.09428135 -7.4375 12.9375 C-7.293125 13.618125 -7.14875 14.29875 -7 15 C-9 13.625 -9 13.625 -11 12 C-11 11.34 -11 10.68 -11 10 C-9.35546875 8.37890625 -9.35546875 8.37890625 -7.1875 6.5625 C-4.68897282 4.45536324 -2.2757944 2.34758602 0 0 Z " fill="#FCDEDA" transform="translate(143,158)"/>
<path d="M0 0 C2.475 0.495 2.475 0.495 5 1 C5.33 2.32 5.66 3.64 6 5 C4.02 5.66 2.04 6.32 0 7 C0 4.69 0 2.38 0 0 Z " fill="#D13B34" transform="translate(288,329)"/>
<path d="M0 0 C0.33 0.66 0.66 1.32 1 2 C1.66 2.33 2.32 2.66 3 3 C0.36 5.64 -2.28 8.28 -5 11 C-5.33 9.68 -5.66 8.36 -6 7 C-5.34 6.67 -4.68 6.34 -4 6 C-3.67 5.34 -3.34 4.68 -3 4 C-2.34 4.33 -1.68 4.66 -1 5 C-0.67 3.35 -0.34 1.7 0 0 Z " fill="#D14D47" transform="translate(195,262)"/>
<path d="M0 0 C0.99 0.66 1.98 1.32 3 2 C2.67 3.32 2.34 4.64 2 6 C0.68 6.33 -0.64 6.66 -2 7 C-2 6.34 -2 5.68 -2 5 C-2.66 4.67 -3.32 4.34 -4 4 C-2.68 2.68 -1.36 1.36 0 0 Z " fill="#FBF0EC" transform="translate(364,166)"/>
<path d="M0 0 C0 4.30269952 -2.2009571 5.8677377 -5 9 C-5.66 9.66 -6.32 10.32 -7 11 C-7.66 10.67 -8.32 10.34 -9 10 C-9 10.66 -9 11.32 -9 12 C-9.66 11.67 -10.32 11.34 -11 11 C-7.33333333 7.33333333 -3.66666667 3.66666667 0 0 Z " fill="#C54946" transform="translate(185,352)"/>
<path d="M0 0 C7.48291572 6.15034169 7.48291572 6.15034169 10 10 C9.01 10 8.02 10 7 10 C7 9.34 7 8.68 7 8 C6.01 8 5.02 8 4 8 C0 2.74285714 0 2.74285714 0 0 Z " fill="#CA5955" transform="translate(133,332)"/>
<path d="M0 0 C1.65 0 3.3 0 5 0 C5 1.32 5 2.64 5 4 C3 5.75 3 5.75 1 7 C1 6.01 1 5.02 1 4 C0.34 4 -0.32 4 -1 4 C-0.67 2.68 -0.34 1.36 0 0 Z " fill="#CE443A" transform="translate(133,321)"/>
<path d="M0 0 C0.33 0.99 0.66 1.98 1 3 C0.54625 3.4125 0.0925 3.825 -0.375 4.25 C-2.05950374 6.06408095 -2.99265971 7.75285627 -4 10 C-5.32 9.01 -6.64 8.02 -8 7 C-5.36 4.69 -2.72 2.38 0 0 Z " fill="#CD5650" transform="translate(245,292)"/>
<path d="M0 0 C0 2.33333333 0 4.66666667 0 7 C0.66 7 1.32 7 2 7 C1.67 8.32 1.34 9.64 1 11 C-0.65 9.35 -2.3 7.7 -4 6 C-2.84826645 3.53199953 -1.95216435 1.95216435 0 0 Z " fill="#CC5650" transform="translate(292,245)"/>
<path d="M0 0 C0.66 0.33 1.32 0.66 2 1 C1.835 1.598125 1.67 2.19625 1.5 2.8125 C0.8885876 5.11344336 0.8885876 5.11344336 1 8 C-0.32 7.34 -1.64 6.68 -3 6 C-2.67 5.34 -2.34 4.68 -2 4 C-2.99 4.33 -3.98 4.66 -5 5 C-4 2 -4 2 -2.0625 0.75 C-1.381875 0.5025 -0.70125 0.255 0 0 Z " fill="#E2584C" transform="translate(366,174)"/>
<path d="M0 0 C0.99 0.33 1.98 0.66 3 1 C2.0479279 2.00596297 1.08812654 3.00461563 0.125 4 C-0.40867187 4.556875 -0.94234375 5.11375 -1.4921875 5.6875 C-3 7 -3 7 -5 7 C-5.33 7.99 -5.66 8.98 -6 10 C-6.66 9.34 -7.32 8.68 -8 8 C-5.36 5.36 -2.72 2.72 0 0 Z " fill="#FBDBD7" transform="translate(329,133)"/>
<path d="M0 0 C0 0.99 0 1.98 0 3 C1.32 3.33 2.64 3.66 4 4 C2.3125 5.1875 2.3125 5.1875 0 6 C-2.75 4.75 -2.75 4.75 -5 3 C-5 2.34 -5 1.68 -5 1 C-2 0 -2 0 0 0 Z " fill="#C74542" transform="translate(80,432)"/>
<path d="M0 0 C0.66 0.33 1.32 0.66 2 1 C1.54917531 2.46067199 1.08906463 3.91848032 0.625 5.375 C0.36976563 6.18710937 0.11453125 6.99921875 -0.1484375 7.8359375 C-1 10 -1 10 -3 12 C-3 9.36 -3 6.72 -3 4 C-2.01 4 -1.02 4 0 4 C0 2.68 0 1.36 0 0 Z " fill="#D15E5D" transform="translate(447,402)"/>
<path d="M0 0 C0.99 0.33 1.98 0.66 3 1 C1.02 2.98 -0.96 4.96 -3 7 C-6.875 5.25 -6.875 5.25 -8 3 C-6.8553125 3.0309375 -6.8553125 3.0309375 -5.6875 3.0625 C-2.89814214 3.12942841 -2.89814214 3.12942841 0 2 C0 1.34 0 0.68 0 0 Z " fill="#D05955" transform="translate(254,205)"/>
<path d="M0 0 C0.99 0.33 1.98 0.66 3 1 C3.73046875 3.06640625 3.73046875 3.06640625 4.1875 5.5625 C4.34605469 6.38878906 4.50460938 7.21507812 4.66796875 8.06640625 C4.77753906 8.70449219 4.88710937 9.34257812 5 10 C4.34 9.67 3.68 9.34 3 9 C3 8.34 3 7.68 3 7 C2.34 7 1.68 7 1 7 C0.01 5.02 -0.98 3.04 -2 1 C-1.34 0.67 -0.68 0.34 0 0 Z " fill="#CE6361" transform="translate(60,416)"/>
<path d="M0 0 C0.99 0.66 1.98 1.32 3 2 C-1.75 5.875 -1.75 5.875 -4 7 C-4 7.66 -4 8.32 -4 9 C-4.66 8.67 -5.32 8.34 -6 8 C-2.25 1.125 -2.25 1.125 0 0 Z " fill="#D53C33" transform="translate(226,313)"/>
<path d="M0 0 C1.14926266 0.95421808 2.29430541 1.91352045 3.4375 2.875 C4.07558594 3.40867188 4.71367187 3.94234375 5.37109375 4.4921875 C7 6 7 6 8 8 C7.21625 7.814375 6.4325 7.62875 5.625 7.4375 C3.02910225 6.74037734 3.02910225 6.74037734 1 8 C0.67 5.36 0.34 2.72 0 0 Z " fill="#D75850" transform="translate(178,216)"/>
<path d="M0 0 C1.12894876 0.93274109 2.25300876 1.87140122 3.375 2.8125 C4.00148438 3.33457031 4.62796875 3.85664063 5.2734375 4.39453125 C7 6 7 6 9 9 C7.35 9 5.7 9 4 9 C0 2.25 0 2.25 0 0 Z " fill="#CB4D46" transform="translate(254,292)"/>
<path d="M0 0 C2.97 0.495 2.97 0.495 6 1 C5.34 2.32 4.68 3.64 4 5 C3.34 5 2.68 5 2 5 C1.67 5.66 1.34 6.32 1 7 C0.31292445 4.50935112 0 2.62113708 0 0 Z " fill="#E5534E" transform="translate(272,177)"/>
<path d="M0 0 C1.37473375 4.27694946 0.38688443 6.83934671 -1 11 C-2.83832664 7.89782379 -3.47446226 5.60591321 -3 2 C-2.01 1.34 -1.02 0.68 0 0 Z " fill="#E8564D" transform="translate(131,160)"/>
<path d="M0 0 C4.455 0.99 4.455 0.99 9 2 C8.67 2.99 8.34 3.98 8 5 C5.36 4.67 2.72 4.34 0 4 C0 2.68 0 1.36 0 0 Z " fill="#ED665D" transform="translate(403,59)"/>
<path d="M0 0 C1.79206547 0.14084796 3.58364917 0.28783701 5.375 0.4375 C6.87160156 0.55931641 6.87160156 0.55931641 8.3984375 0.68359375 C11 1 11 1 13 2 C13 2.66 13 3.32 13 4 C11.39431334 3.71682074 9.79047953 3.42312209 8.1875 3.125 C7.29417969 2.96257812 6.40085937 2.80015625 5.48046875 2.6328125 C3 2 3 2 0 0 Z " fill="#CC6464" transform="translate(86,440)"/>
<path d="M0 0 C1.14926266 0.95421808 2.29430541 1.91352045 3.4375 2.875 C4.07558594 3.40867187 4.71367187 3.94234375 5.37109375 4.4921875 C7 6 7 6 8 8 C6.35 7.67 4.7 7.34 3 7 C3 6.01 3 5.02 3 4 C1.68 3.67 0.36 3.34 -1 3 C-0.67 2.01 -0.34 1.02 0 0 Z " fill="#FAD8D7" transform="translate(349,312)"/>
<path d="M0 0 C2.88575819 0.39803561 3.82189513 0.79009069 5.75 3.0625 C6.36875 4.0215625 6.36875 4.0215625 7 5 C6.01 5.33 5.02 5.66 4 6 C3.34 5.01 2.68 4.02 2 3 C0.35 3.33 -1.3 3.66 -3 4 C-2.01 2.68 -1.02 1.36 0 0 Z " fill="#FCE2DC" transform="translate(168,133)"/>
<path d="M0 0 C1.32 0 2.64 0 4 0 C4.12375 0.61875 4.2475 1.2375 4.375 1.875 C4.87197356 4.19120832 4.87197356 4.19120832 7 6 C5.35 6 3.7 6 2 6 C1.34 4.02 0.68 2.04 0 0 Z " fill="#C64240" transform="translate(64,422)"/>
<path d="M0 0 C2.01761744 3.02642617 3.05339709 5.5048508 4 9 C3.67 9.99 3.34 10.98 3 12 C2.30062798 10.5682384 1.61587282 9.12932968 0.9375 7.6875 C0.55464844 6.88699219 0.17179687 6.08648437 -0.22265625 5.26171875 C-1 3 -1 3 0 0 Z " fill="#CF6866" transform="translate(52,402)"/>
<path d="M0 0 C1.9375 0.75 1.9375 0.75 4 2 C4.75 4.125 4.75 4.125 5 6 C4.01 6.66 3.02 7.32 2 8 C1.67 7.34 1.34 6.68 1 6 C1.66 6 2.32 6 3 6 C2.67 5.34 2.34 4.68 2 4 C1.01 3.67 0.02 3.34 -1 3 C-0.67 2.01 -0.34 1.02 0 0 Z " fill="#CC3C35" transform="translate(305,344)"/>
<path d="M0 0 C1.12894876 0.93274109 2.25300876 1.87140122 3.375 2.8125 C4.00148438 3.33457031 4.62796875 3.85664063 5.2734375 4.39453125 C7 6 7 6 9 9 C6.625 8.75 6.625 8.75 4 8 C2.8125 6 2.8125 6 2 4 C1.34 3.67 0.68 3.34 0 3 C0 2.01 0 1.02 0 0 Z " fill="#C44A45" transform="translate(263,301)"/>
<path d="M0 0 C0.33 0.66 0.66 1.32 1 2 C-3.82142857 8.29464286 -3.82142857 8.29464286 -8 9 C-7.04270084 7.87411986 -6.08412105 6.7493285 -5.125 5.625 C-4.59132812 4.99851562 -4.05765625 4.37203125 -3.5078125 3.7265625 C-2.38567993 2.44163349 -1.20628025 1.20628025 0 0 Z " fill="#FAD3D2" transform="translate(163,299)"/>
<path d="M0 0 C0.33 1.32 0.66 2.64 1 4 C-1.97 6.475 -1.97 6.475 -5 9 C-5.66 8.34 -6.32 7.68 -7 7 C-4.66666667 4.66666667 -2.33333333 2.33333333 0 0 Z " fill="#DB736F" transform="translate(350,186)"/>
<path d="M0 0 C0.99 0.33 1.98 0.66 3 1 C3 3.64 3 6.28 3 9 C1.68 8.67 0.36 8.34 -1 8 C-0.34 7.67 0.32 7.34 1 7 C0.67 4.69 0.34 2.38 0 0 Z " fill="#E17A72" transform="translate(449,103)"/>
<path d="M0 0 C0.99 0 1.98 0 3 0 C2.34 1.32 1.68 2.64 1 4 C0.34 4 -0.32 4 -1 4 C-1 4.66 -1 5.32 -1 6 C-2.32 6.33 -3.64 6.66 -5 7 C-4.67 5.68 -4.34 4.36 -4 3 C-2.68 3 -1.36 3 0 3 C0 2.01 0 1.02 0 0 Z " fill="#C65E5A" transform="translate(427,429)"/>
<path d="M0 0 C3.465 1.98 3.465 1.98 7 4 C6.01 5.485 6.01 5.485 5 7 C4.34 7 3.68 7 3 7 C1.61061923 5.03852126 0.2739589 3.03833424 -1 1 C-0.67 0.67 -0.34 0.34 0 0 Z " fill="#FADEDD" transform="translate(165,361)"/>
<path d="M0 0 C0.99 0.33 1.98 0.66 3 1 C3.8125 2.9375 3.8125 2.9375 4 5 C3.34 5.66 2.68 6.32 2 7 C1.01 6.67 0.02 6.34 -1 6 C-0.67 4.02 -0.34 2.04 0 0 Z " fill="#CF3C36" transform="translate(129,328)"/>
<path d="M0 0 C1.98 1.65 3.96 3.3 6 5 C5.67 6.32 5.34 7.64 5 9 C1.7457985 6.16569547 0.4793247 4.31392226 0 0 Z " fill="#F9DCD6" transform="translate(361,324)"/>
<path d="M0 0 C0 1.32 0 2.64 0 4 C-2.31 3.67 -4.62 3.34 -7 3 C-7 2.34 -7 1.68 -7 1 C-3.375 -1.125 -3.375 -1.125 0 0 Z " fill="#E45047" transform="translate(333,212)"/>
<path d="M0 0 C0.75 1.75 0.75 1.75 1 4 C-0.9375 6.25 -0.9375 6.25 -3 8 C-3 7.34 -3 6.68 -3 6 C-3.66 5.67 -4.32 5.34 -5 5 C-3.35 3.35 -1.7 1.7 0 0 Z " fill="#E17470" transform="translate(342,194)"/>
<path d="M0 0 C0.99 0.33 1.98 0.66 3 1 C0.03 3.475 0.03 3.475 -3 6 C-2.42655063 3.13275314 -2.1385485 2.1385485 0 0 Z M-4 6 C-3.67 6.66 -3.34 7.32 -3 8 C-3.66 7.67 -4.32 7.34 -5 7 C-4.67 6.67 -4.34 6.34 -4 6 Z " fill="#FBE6E4" transform="translate(295,167)"/>
<path d="M0 0 C1.14926266 0.95421808 2.29430541 1.91352045 3.4375 2.875 C4.07558594 3.40867188 4.71367187 3.94234375 5.37109375 4.4921875 C7 6 7 6 8 8 C5.6875 7.8125 5.6875 7.8125 3 7 C0 2.96551724 0 2.96551724 0 0 Z " fill="#FADAD7" transform="translate(191,154)"/>
<path d="M0 0 C2.97 0.495 2.97 0.495 6 1 C6.33 2.98 6.66 4.96 7 7 C5.83040013 6.02433888 4.66438823 5.044375 3.5 4.0625 C2.8503125 3.51722656 2.200625 2.97195312 1.53125 2.41015625 C1.0259375 1.94480469 0.520625 1.47945312 0 1 C0 0.67 0 0.34 0 0 Z " fill="#D6605A" transform="translate(190,152)"/>
<path d="M0 0 C0.99 0.33 1.98 0.66 3 1 C3.6875 3.0625 3.6875 3.0625 4 5 C3.01 5.495 3.01 5.495 2 6 C1.01 5.67 0.02 5.34 -1 5 C-1.33 5.66 -1.66 6.32 -2 7 C-1.125 2.25 -1.125 2.25 0 0 Z " fill="#E95953" transform="translate(306,145)"/>
<path d="M0 0 C3.24299151 2.38957269 5.50902342 4.2047869 7 8 C5.35 7.67 3.7 7.34 2 7 C2.33 6.01 2.66 5.02 3 4 C2.01 4 1.02 4 0 4 C0 2.68 0 1.36 0 0 Z " fill="#E49894" transform="translate(432,71)"/>
<path d="M0 0 C0.33 0 0.66 0 1 0 C0.88557539 1.60495567 0.75805306 3.20898119 0.625 4.8125 C0.55539062 5.70582031 0.48578125 6.59914063 0.4140625 7.51953125 C0 10 0 10 -2 13 C-2.05447047 11.58376784 -2.09300508 10.16691809 -2.125 8.75 C-2.14820313 7.96109375 -2.17140625 7.1721875 -2.1953125 6.359375 C-1.9828378 3.79268059 -1.28654105 2.2083933 0 0 Z " fill="#D57475" transform="translate(451,390)"/>
<path d="M0 0 C0.99 0 1.98 0 3 0 C3.625 1.8125 3.625 1.8125 4 4 C3.01 5.485 3.01 5.485 2 7 C1.34 7 0.68 7 0 7 C0 4.69 0 2.38 0 0 Z " fill="#D73C34" transform="translate(272,313)"/>
<path d="M0 0 C0.99 0.99 1.98 1.98 3 3 C1.35 4.32 -0.3 5.64 -2 7 C-2.6875 5.1875 -2.6875 5.1875 -3 3 C-1.5625 1.25 -1.5625 1.25 0 0 Z " fill="#D24F46" transform="translate(200,257)"/>
<path d="M0 0 C0.33 0.99 0.66 1.98 1 3 C-0.98 4.32 -2.96 5.64 -5 7 C-5.66 6.67 -6.32 6.34 -7 6 C-4.69 4.02 -2.38 2.04 0 0 Z " fill="#E07C76" transform="translate(366,171)"/>
<path d="M0 0 C0.33 0.99 0.66 1.98 1 3 C1.99 3.33 2.98 3.66 4 4 C4 4.66 4 5.32 4 6 C4.66 6 5.32 6 6 6 C5.67 6.99 5.34 7.98 5 9 C2.69 6.69 0.38 4.38 -2 2 C-1.34 1.34 -0.68 0.68 0 0 Z " fill="#DA736D" transform="translate(355,153)"/>
<path d="M0 0 C0.66 0.33 1.32 0.66 2 1 C2 2.65 2 4.3 2 6 C1.01 6.33 0.02 6.66 -1 7 C-2 4 -2 4 -1.0625 1.8125 C-0.5365625 0.9153125 -0.5365625 0.9153125 0 0 Z " fill="#C92F2A" transform="translate(442,408)"/>
<path d="M0 0 C0.99 0.33 1.98 0.66 3 1 C3.33 2.98 3.66 4.96 4 7 C3.34 7 2.68 7 2 7 C2 6.34 2 5.68 2 5 C1.01 5 0.02 5 -1 5 C-0.67 3.35 -0.34 1.7 0 0 Z " fill="#D43D38" transform="translate(216,321)"/>
<path d="M0 0 C1.14926266 0.95421808 2.29430541 1.91352045 3.4375 2.875 C4.07558594 3.40867188 4.71367187 3.94234375 5.37109375 4.4921875 C7 6 7 6 8 8 C5.125 7.375 5.125 7.375 2 6 C0.625 2.875 0.625 2.875 0 0 Z " fill="#CE5C57" transform="translate(186,224)"/>
<path d="M0 0 C0 1.32 0 2.64 0 4 C-0.66 4 -1.32 4 -2 4 C-2.33 5.32 -2.66 6.64 -3 8 C-4 7 -4 7 -4.0625 3.9375 C-4.041875 2.968125 -4.02125 1.99875 -4 1 C-2 0 -2 0 0 0 Z " fill="#E35C53" transform="translate(192,144)"/>
<path d="M0 0 C0.99 0 1.98 0 3 0 C3.66 1.98 4.32 3.96 5 6 C3.68 6 2.36 6 1 6 C0.67 4.02 0.34 2.04 0 0 Z " fill="#E56762" transform="translate(436,79)"/>
<path d="M0 0 C4.8 3.32307692 4.8 3.32307692 5.8125 6.75 C5.874375 7.4925 5.93625 8.235 6 9 C3 8 3 8 1.875 6.1875 C1.05358216 4.13395539 0.46289828 2.16019196 0 0 Z " fill="#CA413C" transform="translate(293,331)"/>
<path d="M0 0 C0.99 0.33 1.98 0.66 3 1 C2.67 1.66 2.34 2.32 2 3 C1.34 3 0.68 3 0 3 C0 3.99 0 4.98 0 6 C-0.99 6 -1.98 6 -3 6 C-2.67 4.68 -2.34 3.36 -2 2 C-1.34 2 -0.68 2 0 2 C0 1.34 0 0.68 0 0 Z " fill="#D33F33" transform="translate(150,306)"/>
<path d="M0 0 C1.32 0 2.64 0 4 0 C6.25 3 6.25 3 8 6 C7.67 6.66 7.34 7.32 7 8 C5.83035398 6.8572081 4.66435444 5.71068285 3.5 4.5625 C2.8503125 3.92441406 2.200625 3.28632813 1.53125 2.62890625 C0 1 0 1 0 0 Z " fill="#C34B47" transform="translate(337,299)"/>
<path d="M0 0 C1.32 0.99 2.64 1.98 4 3 C3.34 4.32 2.68 5.64 2 7 C1.67 6.01 1.34 5.02 1 4 C0.34 4 -0.32 4 -1 4 C-0.67 2.68 -0.34 1.36 0 0 Z " fill="#CF534F" transform="translate(208,246)"/>
<path d="M0 0 C0.66 0.33 1.32 0.66 2 1 C1.67 2.32 1.34 3.64 1 5 C-1.31 5.66 -3.62 6.32 -6 7 C-4.02 4.69 -2.04 2.38 0 0 Z " fill="#D8706C" transform="translate(332,204)"/>
<path d="M0 0 C2.475 0.495 2.475 0.495 5 1 C4.67 2.32 4.34 3.64 4 5 C2.68 4.34 1.36 3.68 0 3 C0 2.01 0 1.02 0 0 Z " fill="#E7504A" transform="translate(258,194)"/>
<path d="M0 0 C0.66 0.33 1.32 0.66 2 1 C2 2.32 2 3.64 2 5 C2.66 5.33 3.32 5.66 4 6 C3.67 6.66 3.34 7.32 3 8 C-1.875 3.25 -1.875 3.25 -3 1 C-2.01 0.67 -1.02 0.34 0 0 Z " fill="#D96862" transform="translate(211,169)"/>
<path d="M0 0 C1.32 0 2.64 0 4 0 C4 1.65 4 3.3 4 5 C2.68 4.34 1.36 3.68 0 3 C0 2.01 0 1.02 0 0 Z " fill="#E9544F" transform="translate(290,162)"/>
<path d="M0 0 C0.99 0 1.98 0 3 0 C1.60667426 3.36720387 0.0210714 4.9859524 -3 7 C-3 6.01 -3 5.02 -3 4 C-2.34 4 -1.68 4 -1 4 C-0.67 2.68 -0.34 1.36 0 0 Z " fill="#D56F68" transform="translate(142,155)"/>
<path d="M0 0 C2.31 1.98 4.62 3.96 7 6 C6.01 6.33 5.02 6.66 4 7 C2 5.1875 2 5.1875 0 3 C0 2.01 0 1.02 0 0 Z " fill="#FEEEE6" transform="translate(352,154)"/>
<path d="M0 0 C0.721875 0.185625 1.44375 0.37125 2.1875 0.5625 C5.12826973 1.01995307 7.14103058 0.73516357 10 0 C7.64031256 2.09749995 6.45383006 2.96905704 3.25 3.1875 C2.13625 3.0946875 2.13625 3.0946875 1 3 C0.67 2.01 0.34 1.02 0 0 Z " fill="#C02620" transform="translate(408,437)"/>
<path d="M0 0 C0.99 0.33 1.98 0.66 3 1 C3 1.66 3 2.32 3 3 C2.34 3 1.68 3 1 3 C1 3.99 1 4.98 1 6 C0.01 6 -0.98 6 -2 6 C-1.34 4.02 -0.68 2.04 0 0 Z " fill="#D02623" transform="translate(436,416)"/>
<path d="M0 0 C0.66 0 1.32 0 2 0 C1.67 1.65 1.34 3.3 1 5 C0.01 5.33 -0.98 5.66 -2 6 C-2 3 -2 3 0 0 Z " fill="#CE514D" transform="translate(200,336)"/>
<path d="M0 0 C0.33 0.99 0.66 1.98 1 3 C-0.65 4.65 -2.3 6.3 -4 8 C-4.66 7.67 -5.32 7.34 -6 7 C-4.02 4.69 -2.04 2.38 0 0 Z " fill="#CA5552" transform="translate(215,321)"/>
<path d="M0 0 C0.66 1.32 1.32 2.64 2 4 C0.35 5.32 -1.3 6.64 -3 8 C-3 7.01 -3 6.02 -3 5 C-2.34 5 -1.68 5 -1 5 C-0.67 3.35 -0.34 1.7 0 0 Z " fill="#F5DDD6" transform="translate(235,297)"/>
<path d="M0 0 C1.98 0.66 3.96 1.32 6 2 C6.33 3.65 6.66 5.3 7 7 C5.83040013 6.02433888 4.66438823 5.044375 3.5 4.0625 C2.8503125 3.51722656 2.200625 2.97195313 1.53125 2.41015625 C1.0259375 1.94480469 0.520625 1.47945313 0 1 C0 0.67 0 0.34 0 0 Z " fill="#C7534D" transform="translate(304,266)"/>
<path d="M0 0 C-1.39332574 3.36720387 -2.9789286 4.9859524 -6 7 C-6 3 -6 3 -4.6875 1.25 C-3 0 -3 0 0 0 Z " fill="#F9E2DB" transform="translate(319,217)"/>
<path d="M0 0 C2.475 0.495 2.475 0.495 5 1 C5.66 2.98 6.32 4.96 7 7 C5.83040013 6.02433888 4.66438823 5.044375 3.5 4.0625 C2.8503125 3.51722656 2.200625 2.97195312 1.53125 2.41015625 C1.0259375 1.94480469 0.520625 1.47945312 0 1 C0 0.67 0 0.34 0 0 Z " fill="#FBD8D6" transform="translate(153,190)"/>
<path d="M0 0 C1.98 0 3.96 0 6 0 C6 1.98 6 3.96 6 6 C3.97945196 4.35830472 1.97956942 2.69088222 0 1 C0 0.67 0 0.34 0 0 Z " fill="#D95C55" transform="translate(215,177)"/>
<path d="M0 0 C0.98120464 3.05263664 0.98120464 4.94736336 0 8 C-0.66 7.67 -1.32 7.34 -2 7 C-2.125 4.625 -2.125 4.625 -2 2 C-1.34 1.34 -0.68 0.68 0 0 Z " fill="#F26259" transform="translate(442,88)"/>
<path d="M0 0 C-0.33 0.99 -0.66 1.98 -1 3 C-3.64 3 -6.28 3 -9 3 C-9 2.34 -9 1.68 -9 1 C-5.92677456 0.08941469 -3.19902639 -0.08886184 0 0 Z " fill="#E86861" transform="translate(91,61)"/>
</svg>
